<?xml version="1.0" encoding="UTF-8" standalone="no"?>

<svg
   version="1.1"
   id="Layer_1"
   x="0px"
   y="0px"
   width="280px"
   height="279.416px"
   viewBox="340 140 280 279.416"
   enable-background="new 340 140 280 279.416"
   xml:space="preserve"
   sodipodi:docname="gear.svg"
   inkscape:version="1.2.1 (9c6d41e410, 2022-07-14)"
   xmlns:inkscape="http://www.inkscape.org/namespaces/inkscape"
   xmlns:sodipodi="http://sodipodi.sourceforge.net/DTD/sodipodi-0.dtd"
   xmlns="http://www.w3.org/2000/svg"
   xmlns:svg="http://www.w3.org/2000/svg"><defs
   id="defs144"><inkscape:path-effect
     effect="fillet_chamfer"
     id="path-effect417"
     is_visible="true"
     lpeversion="1"
     nodesatellites_param="C,0,1,1,0,6,0,2 @ C,0,1,1,0,6,0,2 @ C,0,1,1,0,6,0,2 @ C,0,1,1,0,6,0,2 @ C,0,1,1,0,6,0,2 @ C,0,1,1,0,6,0,2 @ C,0,1,1,0,6,0,2 @ C,0,1,1,0,6,0,2 @ C,0,1,1,0,6,0,2 @ C,0,1,1,0,6,0,2 @ C,0,1,1,0,6,0,2 @ C,0,1,1,0,6,0,2 @ C,0,1,1,0,6,0,2 @ C,0,1,1,0,6,0,2 @ C,0,1,1,0,6,0,2 @ C,0,1,1,0,6,0,2 @ C,0,1,1,0,6,0,2 @ C,0,1,1,0,6,0,2 @ C,0,1,1,0,6,0,2 @ C,0,1,1,0,6,0,2 @ C,0,1,1,0,6,0,2 @ C,0,1,1,0,6,0,2 @ C,0,1,1,0,6,0,2 @ C,0,1,1,0,6,0,2 @ C,0,1,1,0,6,0,2 @ C,0,1,1,0,6,0,2 @ C,0,1,1,0,6,0,2 @ C,0,1,1,0,6,0,2 @ C,0,1,1,0,6,0,2 @ C,0,1,1,0,6,0,2 @ C,0,1,1,0,6,0,2 @ C,0,1,1,0,6,0,2 | F,0,0,1,0,0,0,1 @ F,0,0,1,0,0,0,1 @ F,0,0,1,0,0,0,1 @ F,0,0,1,0,0,0,1"
     unit="px"
     method="bezier"
     mode="F"
     radius="11"
     chamfer_steps="3"
     flexible="false"
     use_knot_distance="true"
     apply_no_radius="true"
     apply_with_radius="true"
     only_selected="true"
     hide_knots="false" /><filter
     style="color-interpolation-filters:sRGB;"
     inkscape:label="Invert"
     id="filter327"
     x="-0.085714286"
     y="-0.085893435"
     width="1.1714286"
     height="1.1717869"
     inkscape:menu-tooltip="Darkens the edge with an inner blur and adds a flexible glow"
     inkscape:menu="Shadows and Glows"><feColorMatrix
       values="1 0 0 0 0 0 1 0 0 0 0 0 1 0 0 -0.21 -0.72 -0.07 2 0 "
       result="fbSourceGraphic"
       id="feColorMatrix325" /><feColorMatrix
       result="fbSourceGraphicAlpha"
       in="fbSourceGraphic"
       values="0 0 0 -1 0 0 0 0 -1 0 0 0 0 -1 0 0 0 0 1 0"
       id="feColorMatrix329" /><feColorMatrix
       id="feColorMatrix331"
       type="hueRotate"
       values="180"
       result="color1"
       in="fbSourceGraphic" /><feColorMatrix
       id="feColorMatrix333"
       values="1 0 0 0 0 0 1 0 0 0 0 0 1 0 0 -0.21 -0.72 -0.07 2 0 "
       result="fbSourceGraphic" /><feColorMatrix
       result="fbSourceGraphicAlpha"
       in="fbSourceGraphic"
       values="0 0 0 -1 0 0 0 0 -1 0 0 0 0 -1 0 0 0 0 1 0"
       id="feColorMatrix335" /><feColorMatrix
       id="feColorMatrix337"
       type="hueRotate"
       values="180"
       result="color1"
       in="fbSourceGraphic" /><feColorMatrix
       id="feColorMatrix339"
       values="1 0 0 0 0 0 1 0 0 0 0 0 1 0 0 -0.21 -0.72 -0.07 2 0 "
       result="fbSourceGraphic" /><feColorMatrix
       result="fbSourceGraphicAlpha"
       in="fbSourceGraphic"
       values="0 0 0 -1 0 0 0 0 -1 0 0 0 0 -1 0 0 0 0 1 0"
       id="feColorMatrix718" /><feGaussianBlur
       id="feGaussianBlur720"
       stdDeviation="5"
       result="result6"
       in="fbSourceGraphic" /><feComposite
       in2="result6"
       id="feComposite722"
       result="result8"
       in="fbSourceGraphic"
       operator="atop" /><feComposite
       in2="fbSourceGraphicAlpha"
       id="feComposite724"
       result="result9"
       operator="over"
       in="result8" /><feColorMatrix
       id="feColorMatrix726"
       values="1 0 0 0 0 0 1 0 0 0 0 0 1 0 0 0 0 0 1 0 "
       result="result10" /><feBlend
       in2="result6"
       id="feBlend728"
       in="result10"
       mode="normal"
       result="fbSourceGraphic" /><feColorMatrix
       result="fbSourceGraphicAlpha"
       in="fbSourceGraphic"
       values="0 0 0 -1 0 0 0 0 -1 0 0 0 0 -1 0 0 0 0 1 0"
       id="feColorMatrix818" /><feGaussianBlur
       id="feGaussianBlur820"
       stdDeviation="5"
       result="result6"
       in="fbSourceGraphic" /><feComposite
       in2="result6"
       id="feComposite822"
       result="result8"
       in="fbSourceGraphic"
       operator="atop" /><feComposite
       in2="fbSourceGraphicAlpha"
       id="feComposite824"
       result="result9"
       operator="over"
       in="result8" /><feColorMatrix
       id="feColorMatrix826"
       values="1 0 0 0 0 0 1 0 0 0 0 0 1 0 0 0 0 0 1 0 "
       result="result10" /><feBlend
       in2="result6"
       id="feBlend828"
       in="result10"
       mode="normal"
       result="fbSourceGraphic" /><feColorMatrix
       result="fbSourceGraphicAlpha"
       in="fbSourceGraphic"
       values="0 0 0 -1 0 0 0 0 -1 0 0 0 0 -1 0 0 0 0 1 0"
       id="feColorMatrix855" /><feColorMatrix
       id="feColorMatrix857"
       values="-1 0 0 0 1 0 -1 0 0 1 0 0 -1 0 1 -0.21 -0.72 -0.07 2 0 "
       result="color2"
       in="fbSourceGraphic" /></filter></defs><sodipodi:namedview
   id="namedview142"
   pagecolor="#ffffff"
   bordercolor="#000000"
   borderopacity="0.25"
   inkscape:showpageshadow="2"
   inkscape:pageopacity="0.0"
   inkscape:pagecheckerboard="0"
   inkscape:deskcolor="#d1d1d1"
   showgrid="false"
   inkscape:zoom="3.3452016"
   inkscape:cx="103.43173"
   inkscape:cy="158.13696"
   inkscape:window-width="1920"
   inkscape:window-height="1046"
   inkscape:window-x="-11"
   inkscape:window-y="-11"
   inkscape:window-maximized="1"
   inkscape:current-layer="Layer_1" />
<path
   d="m 620,299.666 v -39.333 l -1.73345,-4.53155 -4.18491,-2.45484 -19.66328,-3.27722 -4.65351,-2.39196 -2.98852,-4.34053 c -1.51228,-4.53242 -3.32218,-8.86031 -5.3401,-12.89391 l -0.94883,-5.17085 1.62473,-4.95848 11.60874,-15.96132 1.26281,-4.68366 -1.94226,-4.44511 -27.74984,-28.19714 -4.42312,-2.02695 -4.72653,1.15431 -16.36786,11.27542 -5.04655,1.58297 -5.23712,-0.90882 c -4.18691,-2.02474 -8.50243,-3.84383 -12.85683,-5.36785 l -4.32521,-3.05275 -2.39587,-4.68208 -3.24098,-19.08536 -2.46766,-4.18276 L 499.667,140 h -39.334 l -4.53155,1.73345 -2.45484,4.18491 -3.27722,19.66328 -2.39152,4.6557 -4.33446,3.00709 c -4.48628,1.53171 -8.70729,3.36715 -12.84835,5.41357 l -5.21461,0.91736 -5.0184,-1.61501 -15.8571,-11.1717 -4.72086,-1.21085 -4.46052,1.96378 -28.19714,27.74984 -1.99024,4.39713 1.24294,4.66379 11.60874,15.96132 1.67138,4.98374 -0.86893,5.21268 c -2.06919,4.2954 -3.92368,8.76508 -5.46807,13.40937 l -2.99156,4.3098 -4.6659,2.3161 -19.62958,2.9083 -4.19683,2.37915 L 340,260.333 v 39.333 l 1.73345,4.53155 4.18491,2.45484 19.66328,3.27722 4.6557,2.39152 3.00706,4.33447 c 1.53178,4.48664 3.36739,8.70814 5.41422,12.84954 l 0.91129,5.21002 -1.63009,5.00754 -11.71264,16.4706 -1.2161,4.70018 1.98156,4.43216 27.68172,27.68172 4.43216,1.98156 4.70018,-1.2161 16.4706,-11.71264 5.01012,-1.63458 5.22358,0.88424 c 4.2952,2.06914 8.76507,3.92359 13.40944,5.46795 l 4.34647,2.9857 2.4046,4.65183 3.24098,19.08536 2.46766,4.18276 4.53685,1.73256 h 39.333 l 4.53155,-1.73345 2.45484,-4.18491 3.27722,-19.66328 2.38312,-4.684 4.32004,-3.05324 c 4.35474,-1.52376 8.6703,-3.34284 12.85754,-5.36766 l 5.22215,-0.88725 5.01033,1.63485 16.47042,11.71188 4.70024,1.21601 4.43219,-1.98159 27.68072,-27.68072 1.98159,-4.43219 -1.21601,-4.70024 -11.71188,-16.47042 -1.63021,-5.00776 0.91099,-5.21032 c 2.04651,-4.14153 3.88202,-8.36276 5.41377,-12.84924 l 3.01128,-4.30778 4.6659,-2.32726 19.05142,-2.87586 4.19512,-2.39062 z m -145.76175,54.49483 c -41.10642,0 -74.15322,-33.19007 -74.15322,-74.47643 0,-41.28636 33.85234,-74.47782 74.15322,-74.47782 40.30087,0 74.15322,33.19146 74.15322,74.47782 0,41.28636 -33.0468,74.47643 -74.15322,74.47643 z"
   id="path139"
   style="filter:url(#filter327)"
   inkscape:path-effect="#path-effect417"
   inkscape:original-d="m 620,305.666 v -51.333 l -31.5,-5.25 c -2.333,-8.75 -5.833,-16.917 -9.917,-23.917 l 18.667,-25.666 -36.167,-36.75 -26.25,18.083 c -7.583,-4.083 -15.75,-7.583 -23.916,-9.917 L 505.667,140 h -51.334 l -5.25,31.5 c -8.75,2.333 -16.333,5.833 -23.916,9.916 L 399.5,163.333 362.75,199.5 l 18.667,25.666 c -4.083,7.584 -7.583,15.75 -9.917,24.5 l -31.5,4.667 v 51.333 l 31.5,5.25 c 2.333,8.75 5.833,16.334 9.917,23.917 l -18.667,26.25 36.167,36.167 26.25,-18.667 c 7.583,4.083 15.75,7.583 24.5,9.917 l 5.25,30.916 h 51.333 l 5.25,-31.5 c 8.167,-2.333 16.333,-5.833 23.917,-9.916 l 26.25,18.666 36.166,-36.166 -18.666,-26.25 c 4.083,-7.584 7.583,-15.167 9.916,-23.917 z m -145.76175,48.49483 c -41.10642,0 -74.15322,-33.19007 -74.15322,-74.47643 0,-41.28636 33.85234,-74.47782 74.15322,-74.47782 40.30087,0 74.15322,33.19146 74.15322,74.47782 0,41.28636 -33.0468,74.47643 -74.15322,74.47643 z"
   transform="matrix(0.88401182,0,0,0.88401182,55.674325,32.463679)"
   sodipodi:nodetypes="cccccccccccccccccccccccccccccccccsssss" />
</svg>
