# Blender 3.3.1
# www.blender.org
o ammo
v -1.062026 1.809053 0.012233
v 1.062026 1.809053 0.012233
v -1.062026 1.722493 -0.310812
v 1.062026 1.722493 -0.310812
v -1.062026 1.486007 -0.547298
v 1.062026 1.486008 -0.547298
v -1.062026 1.162962 -0.633857
v 1.062026 1.162962 -0.633857
v -1.062026 0.839917 -0.547298
v 1.062026 0.839917 -0.547298
v -1.062026 0.603432 -0.310812
v 1.062026 0.603432 -0.310812
v -1.062026 0.516872 0.012233
v 1.062026 0.516872 0.012233
v -1.062026 0.603432 0.335278
v 1.062026 0.603432 0.335278
v -1.062026 0.839917 0.571764
v 1.062026 0.839917 0.571763
v -1.062026 1.162962 0.658323
v 1.062026 1.162962 0.658323
v -1.062026 1.486008 0.571764
v 1.062026 1.486008 0.571763
v -1.062026 1.722493 0.335278
v 1.062026 1.722493 0.335278
v -1.062026 0.646090 0.012233
v 1.062026 0.646090 0.012233
v -1.062026 0.559530 -0.310812
v 1.062026 0.559530 -0.310812
v -1.062026 0.323045 -0.547298
v 1.062026 0.323045 -0.547298
v -1.062026 0.000000 -0.633857
v 1.062026 0.000000 -0.633857
v -1.062026 -0.323045 -0.547298
v 1.062026 -0.323045 -0.547298
v -1.062026 -0.559531 -0.310812
v 1.062026 -0.559531 -0.310812
v -1.062026 -0.646090 0.012233
v 1.062026 -0.646090 0.012233
v -1.062026 -0.559531 0.335278
v 1.062026 -0.559531 0.335278
v -1.062026 -0.323045 0.571764
v 1.062026 -0.323045 0.571763
v -1.062026 0.000000 0.658323
v 1.062026 0.000000 0.658323
v -1.062026 0.323045 0.571764
v 1.062026 0.323045 0.571763
v -1.062026 0.559530 0.335278
v 1.062026 0.559530 0.335278
v -1.062026 -0.516872 0.012233
v 1.062026 -0.516872 0.012233
v -1.062026 -0.603432 -0.310812
v 1.062026 -0.603432 -0.310812
v -1.062026 -0.839917 -0.547298
v 1.062026 -0.839917 -0.547298
v -1.062026 -1.162962 -0.633857
v 1.062026 -1.162962 -0.633857
v -1.062026 -1.486007 -0.547298
v 1.062026 -1.486007 -0.547298
v -1.062026 -1.722493 -0.310812
v 1.062026 -1.722493 -0.310812
v -1.062026 -1.809052 0.012233
v 1.062026 -1.809052 0.012233
v -1.062026 -1.722493 0.335278
v 1.062026 -1.722493 0.335278
v -1.062026 -1.486007 0.571763
v 1.062026 -1.486007 0.571763
v -1.062026 -1.162962 0.658323
v 1.062026 -1.162962 0.658323
v -1.062026 -0.839917 0.571763
v 1.062026 -0.839917 0.571763
v -1.062026 -0.603432 0.335278
v 1.062026 -0.603432 0.335278
vn -0.0000 0.9659 -0.2588
vn -0.0000 0.7071 -0.7071
vn -0.0000 0.2588 -0.9659
vn -0.0000 -0.2588 -0.9659
vn -0.0000 -0.7071 -0.7071
vn -0.0000 -0.9659 -0.2588
vn -0.0000 -0.9659 0.2588
vn -0.0000 -0.7071 0.7071
vn -0.0000 -0.2588 0.9659
vn -0.0000 0.2588 0.9659
vn 1.0000 -0.0000 -0.0000
vn -0.0000 0.7071 0.7071
vn -0.0000 0.9659 0.2588
vn -1.0000 -0.0000 -0.0000
vt 0.210926 0.000000
vt 0.730669 0.089148
vt 0.332704 0.730669
vt 0.210926 0.252148
vt 0.154408 0.000000
vt 0.730669 0.154408
vt 0.154408 0.252148
vt 0.397965 0.730669
vt 0.089148 0.000000
vt 0.698038 0.210926
vt 0.089148 0.252148
vt 0.454482 0.698038
vt 0.032630 0.000000
vt 0.641521 0.243556
vt 0.032630 0.252148
vt 0.487113 0.641521
vt 0.178295 0.747852
vt 0.000000 0.000000
vt 0.576260 0.243556
vt 0.000000 0.252148
vt 0.178295 1.000000
vt 0.487113 0.576260
vt 0.121778 0.747852
vt 0.519743 0.210926
vt 0.121778 1.000000
vt 0.454482 0.519743
vt 0.056517 0.747852
vt 0.487112 0.154408
vt 0.056517 1.000000
vt 0.397965 0.487113
vt 0.698038 0.739260
vt 0.000000 0.747852
vt 0.487112 0.089148
vt 0.000000 1.000000
vt 0.698038 0.991408
vt 0.332704 0.487113
vt 0.641521 0.739260
vt 0.519743 0.032630
vt 0.641521 0.991408
vt 0.276187 0.519743
vt 0.576260 0.739260
vt 0.576260 0.000000
vt 0.576260 0.991408
vt 0.243556 0.576260
vt 0.519743 0.739260
vt 0.641521 0.000000
vt 0.243556 0.641521
vt 0.519743 0.991408
vt 0.487113 0.739260
vt 0.243556 0.000000
vt 0.698038 0.032630
vt 0.276187 0.698038
vt 0.487113 0.991408
vt 0.243556 0.252148
vt 0.421852 0.730669
vt 0.210926 0.284778
vt 0.276187 0.210926
vt 0.421852 0.982817
vt 0.365334 0.730669
vt 0.243556 0.341296
vt 0.365334 0.982817
vt 0.332704 0.243556
vt 0.300074 0.730669
vt 0.243556 0.406556
vt 0.300074 0.982817
vt 0.397965 0.243556
vt 0.941594 0.000000
vt 0.243556 0.730669
vt 0.210926 0.463074
vt 0.243556 0.982817
vt 0.941594 0.252148
vt 0.454482 0.210926
vt 0.908964 0.000000
vt 0.154408 0.495704
vt 0.908964 0.252148
vt 0.487113 0.154408
vt 0.852447 0.000000
vt 0.089148 0.495704
vt 0.852447 0.252148
vt 0.487113 0.089148
vt 0.787186 0.000000
vt 0.032630 0.463074
vt 0.787186 0.252148
vt 0.454482 0.032630
vt 0.698038 0.487113
vt 0.730669 0.000000
vt 0.000000 0.406556
vt 0.730669 0.252148
vt 0.698038 0.739261
vt 0.397965 0.000000
vt 0.641521 0.487113
vt 0.000000 0.341295
vt 0.641521 0.739260
vt 0.332704 0.000000
vt 0.576260 0.487113
vt 0.032630 0.284778
vt 0.576260 0.739260
vt 0.276187 0.032630
vt 0.519743 0.487113
vt 0.089148 0.252148
vt 0.243556 0.089148
vt 0.519743 0.739260
vt 0.454482 0.730669
vt 0.487113 0.487113
vt 0.154408 0.252148
vt 0.243556 0.154409
vt 0.487113 0.739261
vt 0.454482 0.982817
vt 0.876334 0.739260
vt 0.576260 0.487113
vt 0.397965 0.243556
vt 0.876334 0.991408
vt 0.819816 0.739260
vt 0.519743 0.454482
vt 0.819816 0.991408
vt 0.332704 0.243556
vt 0.754556 0.739260
vt 0.487112 0.397965
vt 0.754556 0.991408
vt 0.276186 0.276187
vt 0.908964 0.487113
vt 0.698038 0.739260
vt 0.487112 0.332704
vt 0.698038 0.991408
vt 0.908964 0.739261
vt 0.243556 0.332704
vt 0.876334 0.487113
vt 0.519743 0.276187
vt 0.876334 0.739261
vt 0.243556 0.397965
vt 0.819816 0.487113
vt 0.576260 0.243556
vt 0.819816 0.739261
vt 0.276187 0.454482
vt 0.754556 0.487113
vt 0.641521 0.243556
vt 0.754556 0.739261
vt 0.332704 0.487113
vt 0.210926 0.495704
vt 0.698038 0.487113
vt 0.698038 0.276187
vt 0.698038 0.739261
vt 0.210926 0.747852
vt 0.397965 0.487113
vt 0.154408 0.495704
vt 0.730669 0.332704
vt 0.154408 0.747852
vt 0.454482 0.454482
vt 0.089148 0.495704
vt 0.730669 0.397965
vt 0.089148 0.747852
vt 0.487112 0.397965
vt 0.032630 0.495704
vt 0.698038 0.454482
vt 0.487112 0.332704
vt 0.032630 0.747852
vt 0.908964 0.739260
vt 0.000000 0.495704
vt 0.641521 0.487113
vt 0.454482 0.276187
vt 0.000000 0.747852
vt 0.908964 0.991408
s 0
f 2/4/1 3/5/1 1/1/1
f 4/7/2 5/9/2 3/5/2
f 5/9/3 8/15/3 7/13/3
f 8/15/4 9/18/4 7/13/4
f 10/21/5 11/23/5 9/17/5
f 12/25/6 13/27/6 11/23/6
f 14/29/7 15/32/7 13/27/7
f 16/35/8 17/37/8 15/31/8
f 18/39/9 19/41/9 17/37/9
f 20/43/10 21/45/10 19/41/10
f 22/47/11 14/30/11 6/12/11
f 21/45/12 24/53/12 23/49/12
f 24/54/13 1/1/13 23/50/13
f 7/14/14 15/33/14 23/51/14
f 26/58/1 27/59/1 25/55/1
f 28/61/2 29/63/2 27/59/2
f 30/65/3 31/68/3 29/63/3
f 32/71/4 33/73/4 31/67/4
f 34/75/5 35/77/5 33/73/5
f 36/79/6 37/81/6 35/77/6
f 38/83/7 39/86/7 37/81/7
f 40/89/8 41/91/8 39/85/8
f 42/93/9 43/95/9 41/91/9
f 44/97/10 45/99/10 43/95/10
f 46/101/11 38/84/11 30/66/11
f 46/102/12 47/104/12 45/99/12
f 48/108/13 25/55/13 47/103/13
f 31/69/14 39/87/14 47/105/14
f 50/112/1 51/113/1 49/109/1
f 52/115/2 53/117/2 51/113/2
f 54/119/3 55/122/3 53/117/3
f 56/125/4 57/127/4 55/121/4
f 58/129/5 59/131/5 57/127/5
f 60/133/6 61/135/6 59/131/6
f 62/137/7 63/140/7 61/135/7
f 64/143/8 65/145/8 63/139/8
f 66/147/9 67/149/9 65/145/9
f 68/151/10 69/153/10 67/149/10
f 70/155/11 62/138/11 54/120/11
f 70/156/12 71/158/12 69/153/12
f 72/162/13 49/109/13 71/157/13
f 55/123/14 63/141/14 71/159/14
f 2/4/1 4/7/1 3/5/1
f 4/7/2 6/11/2 5/9/2
f 5/9/3 6/11/3 8/15/3
f 8/15/4 10/20/4 9/18/4
f 10/21/5 12/25/5 11/23/5
f 12/25/6 14/29/6 13/27/6
f 14/29/7 16/34/7 15/32/7
f 16/35/8 18/39/8 17/37/8
f 18/39/9 20/43/9 19/41/9
f 20/43/10 22/48/10 21/45/10
f 6/12/11 4/8/11 2/3/11
f 2/3/11 24/52/11 22/47/11
f 22/47/11 20/44/11 18/40/11
f 18/40/11 16/36/11 14/30/11
f 14/30/11 12/26/11 10/22/11
f 10/22/11 8/16/11 6/12/11
f 6/12/11 2/3/11 22/47/11
f 22/47/11 18/40/11 14/30/11
f 14/30/11 10/22/11 6/12/11
f 21/45/12 22/48/12 24/53/12
f 24/54/13 2/4/13 1/1/13
f 23/51/14 1/2/14 3/6/14
f 3/6/14 5/10/14 7/14/14
f 7/14/14 9/19/14 11/24/14
f 11/24/14 13/28/14 15/33/14
f 15/33/14 17/38/14 19/42/14
f 19/42/14 21/46/14 23/51/14
f 23/51/14 3/6/14 7/14/14
f 7/14/14 11/24/14 15/33/14
f 15/33/14 19/42/14 23/51/14
f 26/58/1 28/61/1 27/59/1
f 28/61/2 30/65/2 29/63/2
f 30/65/3 32/70/3 31/68/3
f 32/71/4 34/75/4 33/73/4
f 34/75/5 36/79/5 35/77/5
f 36/79/6 38/83/6 37/81/6
f 38/83/7 40/88/7 39/86/7
f 40/89/8 42/93/8 41/91/8
f 42/93/9 44/97/9 43/95/9
f 44/97/10 46/102/10 45/99/10
f 30/66/11 28/62/11 26/57/11
f 26/57/11 48/106/11 46/101/11
f 46/101/11 44/98/11 42/94/11
f 42/94/11 40/90/11 38/84/11
f 38/84/11 36/80/11 34/76/11
f 34/76/11 32/72/11 30/66/11
f 30/66/11 26/57/11 46/101/11
f 46/101/11 42/94/11 38/84/11
f 38/84/11 34/76/11 30/66/11
f 46/102/12 48/107/12 47/104/12
f 48/108/13 26/58/13 25/55/13
f 47/105/14 25/56/14 27/60/14
f 27/60/14 29/64/14 31/69/14
f 31/69/14 33/74/14 35/78/14
f 35/78/14 37/82/14 39/87/14
f 39/87/14 41/92/14 43/96/14
f 43/96/14 45/100/14 47/105/14
f 47/105/14 27/60/14 31/69/14
f 31/69/14 35/78/14 39/87/14
f 39/87/14 43/96/14 47/105/14
f 50/112/1 52/115/1 51/113/1
f 52/115/2 54/119/2 53/117/2
f 54/119/3 56/124/3 55/122/3
f 56/125/4 58/129/4 57/127/4
f 58/129/5 60/133/5 59/131/5
f 60/133/6 62/137/6 61/135/6
f 62/137/7 64/142/7 63/140/7
f 64/143/8 66/147/8 65/145/8
f 66/147/9 68/151/9 67/149/9
f 68/151/10 70/156/10 69/153/10
f 54/120/11 52/116/11 50/111/11
f 50/111/11 72/160/11 70/155/11
f 70/155/11 68/152/11 66/148/11
f 66/148/11 64/144/11 62/138/11
f 62/138/11 60/134/11 58/130/11
f 58/130/11 56/126/11 54/120/11
f 54/120/11 50/111/11 70/155/11
f 70/155/11 66/148/11 62/138/11
f 62/138/11 58/130/11 54/120/11
f 70/156/12 72/161/12 71/158/12
f 72/162/13 50/112/13 49/109/13
f 71/159/14 49/110/14 51/114/14
f 51/114/14 53/118/14 55/123/14
f 55/123/14 57/128/14 59/132/14
f 59/132/14 61/136/14 63/141/14
f 63/141/14 65/146/14 67/150/14
f 67/150/14 69/154/14 71/159/14
f 71/159/14 51/114/14 55/123/14
f 55/123/14 59/132/14 63/141/14
f 63/141/14 67/150/14 71/159/14
