# Blender 3.3.1
# www.blender.org
o health
v -1.313300 -1.069500 -0.314026
v -1.313300 -1.069500 0.292065
v -1.313300 0.994308 -0.314026
v -1.313300 0.994308 0.292065
v 1.313300 -1.069500 -0.314026
v 1.313300 -1.069500 0.292065
v 1.313300 0.994308 -0.314026
v 1.313300 0.994308 0.292065
v -1.313300 0.581547 -0.314026
v -1.313300 0.168785 -0.314026
v -1.313300 -0.243977 -0.314026
v -1.313300 -0.656739 -0.314026
v -1.313300 -0.656739 0.292065
v -1.313300 -0.243977 0.292065
v -1.313300 0.168785 0.292065
v -1.313300 0.581547 0.292065
v 1.313300 -0.656739 -0.314026
v 1.313300 -0.243977 -0.314026
v 1.313300 0.168785 -0.314026
v 1.313300 0.581547 -0.314026
v 1.313300 0.581547 0.292065
v 1.313300 0.168785 0.292065
v 1.313300 -0.243977 0.292065
v 1.313300 -0.656739 0.292065
v 0.693482 0.994308 -0.314026
v 0.231161 0.994308 -0.314026
v -0.231161 0.994308 -0.314026
v -0.693482 0.994308 -0.314026
v -0.693482 0.994308 0.292065
v -0.231161 0.994308 0.292065
v 0.231161 0.994308 0.292065
v 0.693482 0.994308 0.292065
v -0.693482 -1.069500 -0.314026
v -0.231161 -0.940568 -0.314026
v 0.231161 -0.940568 -0.314026
v 0.693482 -1.069500 -0.314026
v 0.693482 -1.069500 0.292065
v 0.231161 -0.940568 0.292065
v -0.231161 -0.940568 0.292065
v -0.693482 -1.069500 0.292065
v -0.693482 0.581547 0.292065
v -0.231161 0.581547 0.292065
v 0.231161 0.581547 0.292065
v 0.693482 0.581547 0.292065
v -0.693482 0.168785 0.292065
v -0.231161 0.168785 0.292065
v 0.231161 0.168785 0.292065
v 0.693482 0.168785 0.292065
v -0.693482 -0.243977 0.292065
v -0.231161 -0.243977 0.292065
v 0.231161 -0.243977 0.292065
v 0.693482 -0.243977 0.292065
v -0.693482 -0.656739 0.292065
v -0.231161 -0.656739 0.292065
v 0.231161 -0.656739 0.292065
v 0.693482 -0.656739 0.292065
v 0.693482 0.581547 -0.314026
v 0.231161 0.581547 -0.314026
v -0.231161 0.581547 -0.314026
v -0.693482 0.581547 -0.314026
v 0.693482 0.168785 -0.314026
v 0.231161 0.168785 -0.314026
v -0.231161 0.168785 -0.314026
v -0.693482 0.168785 -0.314026
v 0.693482 -0.243977 -0.314026
v 0.231161 -0.243977 -0.314026
v -0.231161 -0.243977 -0.314026
v -0.693482 -0.243977 -0.314026
v 0.693482 -0.656739 -0.314026
v 0.231161 -0.656739 -0.314026
v -0.231161 -0.656739 -0.314026
v -0.693482 -0.656739 -0.314026
v -1.313300 -1.069500 -0.111996
v -1.313300 -1.069500 0.090035
v -1.313300 0.994308 0.090035
v -1.313300 0.994308 -0.111996
v 1.313300 0.994308 0.090035
v 1.313300 0.994308 -0.111996
v 1.313300 -1.069500 0.090035
v 1.313300 -1.069500 -0.111996
v 1.313300 0.581547 0.090035
v 1.313300 0.581547 -0.111996
v 1.313300 0.168785 0.090035
v 1.313300 0.168785 -0.111996
v 1.313300 -0.243977 0.090035
v 1.313300 -0.243977 -0.111996
v 1.313300 -0.656739 0.090035
v 1.313300 -0.656739 -0.111996
v -1.313300 -0.656739 0.090035
v -1.313300 -0.656739 -0.111996
v -1.313300 -0.243977 0.090035
v -1.313300 -0.243977 -0.111996
v -1.313300 0.168785 0.090035
v -1.313300 0.168785 -0.111996
v -1.313300 0.581547 0.090035
v -1.313300 0.581547 -0.111996
v 0.693482 -1.069500 0.090035
v 0.693482 -1.069500 -0.111996
v 0.518266 -1.069500 0.090035
v 0.518266 -1.069500 -0.111996
v -0.518266 -1.069500 0.090035
v -0.518266 -1.069500 -0.111996
v -0.693482 -1.069500 0.090035
v -0.693482 -1.069500 -0.111996
v -0.693482 0.994308 0.090035
v -0.693482 0.994308 -0.111996
v -0.231161 0.994308 0.090035
v -0.231161 0.994308 -0.111996
v 0.231161 0.994308 0.090035
v 0.231161 0.994308 -0.111996
v 0.693482 0.994308 0.090035
v 0.693482 0.994308 -0.111996
v -0.255606 -1.369613 0.090035
v -0.255606 -1.369613 -0.111996
v -0.430822 -1.369613 0.090035
v -0.430822 -1.369613 -0.111996
v 0.430822 -1.369613 0.090035
v 0.430822 -1.369613 -0.111996
v 0.255606 -1.369613 0.090035
v 0.255606 -1.369613 -0.111996
v -0.118579 -1.506839 0.090035
v -0.118579 -1.506839 -0.111996
v -0.308175 -1.506839 0.090035
v -0.308175 -1.506839 -0.111996
v 0.308175 -1.506839 0.090035
v 0.308175 -1.506839 -0.111996
v 0.118579 -1.506839 0.090035
v 0.118579 -1.506839 -0.111996
v -0.255606 -1.369613 0.090035
v -0.255606 -1.369613 -0.111996
v 0.255606 -1.369613 0.090035
v 0.255606 -1.369613 -0.111996
vn -1.0000 -0.0000 -0.0000
vn -0.0000 1.0000 -0.0000
vn 1.0000 -0.0000 -0.0000
vn -0.0000 -1.0000 -0.0000
vn -0.0000 -0.0000 -1.0000
vn -0.0000 -0.0000 1.0000
vn 0.4097 -0.9122 -0.0000
vn 0.2616 -0.9381 -0.2269
vn -0.4097 -0.9122 -0.0000
vn -0.2616 -0.9381 -0.2269
vn 0.7525 -0.6586 -0.0000
vn -0.7456 -0.6664 -0.0000
vn -0.7525 -0.6586 -0.0000
vn 0.7525 0.6586 -0.0000
vn -0.7525 0.6586 -0.0000
vn 0.7456 -0.6664 -0.0000
vn -0.2616 -0.9381 0.2269
vn 0.2616 -0.9381 0.2269
vt 0.282999 0.060789
vt 0.161056 0.426618
vt 0.282999 0.548561
vt 0.404942 0.548561
vt 0.526884 0.426618
vt 0.404942 0.060789
vt 0.161056 0.304675
vt 0.282999 0.182732
vt 0.526884 0.304675
vt 0.404942 0.182732
vt 0.282999 0.426618
vt 0.404942 0.426618
vt 0.282999 0.304675
vt 0.404942 0.304675
vt 0.161056 0.329064
vt 0.282999 0.158344
vt 0.161056 0.353453
vt 0.282999 0.133955
vt 0.161056 0.377841
vt 0.282999 0.109566
vt 0.161056 0.402230
vt 0.282999 0.085178
vt 0.526884 0.402230
vt 0.404942 0.085178
vt 0.526884 0.377841
vt 0.404942 0.109566
vt 0.526884 0.353453
vt 0.404942 0.133955
vt 0.526884 0.329064
vt 0.404942 0.158344
vt 0.282999 0.402230
vt 0.282999 0.377841
vt 0.282999 0.353453
vt 0.282999 0.329064
vt 0.404942 0.329064
vt 0.404942 0.353453
vt 0.404942 0.377841
vt 0.404942 0.402230
vt 0.258610 0.304675
vt 0.282999 0.280287
vt 0.234221 0.304675
vt 0.282999 0.255898
vt 0.209833 0.304675
vt 0.282999 0.231509
vt 0.185444 0.304675
vt 0.282999 0.207121
vt 0.502496 0.304675
vt 0.404942 0.207121
vt 0.478107 0.304675
vt 0.404942 0.231509
vt 0.453719 0.304675
vt 0.404942 0.255898
vt 0.429330 0.304675
vt 0.404942 0.280287
vt 0.185444 0.426618
vt 0.282999 0.524173
vt 0.100084 0.060789
vt 0.209833 0.426618
vt 0.282999 0.499784
vt 0.282999 0.475395
vt 0.234221 0.426618
vt 0.185939 0.060789
vt 0.258610 0.426618
vt 0.282999 0.451007
vt 0.429330 0.426618
vt 0.404942 0.451007
vt 0.453719 0.426618
vt 0.404942 0.475395
vt 0.185939 0.548561
vt 0.478107 0.426618
vt 0.404942 0.499784
vt 0.100084 0.548561
vt 0.502496 0.426618
vt 0.404942 0.524173
vt 0.502496 0.329064
vt 0.664131 0.679408
vt 0.478107 0.329064
vt 0.639742 0.679408
vt 0.453719 0.329064
vt 0.429330 0.329064
vt 0.688519 0.703797
vt 0.502496 0.353453
vt 0.664131 0.703797
vt 0.478107 0.353453
vt 0.453719 0.353453
vt 0.639742 0.703797
vt 0.615354 0.703797
vt 0.429330 0.353453
vt 0.502496 0.377841
vt 0.688519 0.728185
vt 0.478107 0.377841
vt 0.664131 0.728185
vt 0.453719 0.377841
vt 0.639742 0.728185
vt 0.429330 0.377841
vt 0.615354 0.728185
vt 0.502496 0.402230
vt 0.664131 0.752574
vt 0.478107 0.402230
vt 0.639742 0.752574
vt 0.453719 0.402230
vt 0.429330 0.402230
vt 0.258610 0.329064
vt 0.748887 0.694910
vt 0.234221 0.329064
vt 0.724498 0.694910
vt 0.209833 0.329064
vt 0.185444 0.329064
vt 0.773275 0.719299
vt 0.258610 0.353453
vt 0.748887 0.719299
vt 0.234221 0.353453
vt 0.209833 0.353453
vt 0.724498 0.719299
vt 0.700109 0.719299
vt 0.185444 0.353453
vt 0.258610 0.377841
vt 0.773275 0.743687
vt 0.234221 0.377841
vt 0.748887 0.743687
vt 0.209833 0.377841
vt 0.724498 0.743687
vt 0.185444 0.377841
vt 0.700109 0.743687
vt 0.258610 0.402230
vt 0.748887 0.768076
vt 0.234221 0.402230
vt 0.724498 0.768076
vt 0.209833 0.402230
vt 0.185444 0.402230
vt 0.323646 0.060789
vt 0.323646 0.548561
vt 0.364294 0.060789
vt 0.364294 0.548561
vt 0.364294 0.182732
vt 0.323646 0.182732
vt 0.364294 0.304675
vt 0.323646 0.304675
vt 0.364294 0.426618
vt 0.323646 0.426618
vt 0.364294 0.329064
vt 0.323646 0.329064
vt 0.364294 0.353453
vt 0.323646 0.353453
vt 0.364294 0.377841
vt 0.323646 0.377841
vt 0.364294 0.402230
vt 0.323646 0.402230
vt 0.364294 0.085178
vt 0.323646 0.085178
vt 0.364294 0.109566
vt 0.323646 0.109566
vt 0.364294 0.133955
vt 0.323646 0.133955
vt 0.364294 0.158344
vt 0.323646 0.158344
vt 0.364294 0.451007
vt 0.323646 0.451007
vt 0.364294 0.475395
vt 0.323646 0.475395
vt 0.364294 0.499784
vt 0.323646 0.499784
vt 0.364294 0.524173
vt 0.323646 0.524173
vt 0.364294 0.207121
vt 0.323646 0.207121
vt 0.364294 0.231509
vt 0.323646 0.231509
vt 0.364294 0.255898
vt 0.323646 0.255898
vt 0.364294 0.280287
vt 0.323646 0.280287
vt 0.364294 0.499784
vt 0.323646 0.499784
vt 0.364294 0.524173
vt 0.323646 0.524173
vt 0.364294 0.451007
vt 0.323646 0.451007
vt 0.364294 0.475395
vt 0.323646 0.475395
vt 0.364294 0.499784
vt 0.323646 0.499784
vt 0.364294 0.524173
vt 0.323646 0.524173
vt 0.364294 0.451007
vt 0.323646 0.451007
vt 0.364294 0.475395
vt 0.323646 0.475395
vt 0.100084 0.060789
vt 0.100084 0.060789
vt 0.100084 0.060789
vt 0.100084 0.060789
s 0
f 16/30/1 75/135/1 95/155/1
f 32/54/2 77/137/2 111/171/2
f 24/38/3 79/139/3 87/147/3
f 40/74/4 74/134/4 103/163/4
f 17/31/5 36/63/5 69/125/5
f 13/23/6 40/73/6 53/97/6
f 4/9/6 41/75/6 29/47/6
f 16/29/6 45/82/6 41/75/6
f 15/27/6 49/89/6 45/82/6
f 14/25/6 53/97/6 49/89/6
f 7/13/5 57/103/5 25/39/5
f 20/34/5 61/110/5 57/103/5
f 19/33/5 65/117/5 61/110/5
f 18/32/5 69/125/5 65/117/5
f 8/14/3 81/141/3 77/137/3
f 81/141/3 22/36/3 83/143/3
f 22/36/3 85/145/3 83/143/3
f 23/37/3 87/147/3 85/145/3
f 2/6/1 89/149/1 74/133/1
f 13/24/1 91/151/1 89/149/1
f 91/151/1 15/28/1 93/153/1
f 15/28/1 95/155/1 93/153/1
f 68/123/5 12/21/5 11/19/5
f 67/121/5 72/130/5 68/123/5
f 66/120/5 71/128/5 67/122/5
f 65/117/5 70/127/5 66/119/5
f 64/116/5 11/19/5 10/17/5
f 63/114/5 68/124/5 64/115/5
f 62/111/5 67/122/5 63/114/5
f 61/109/5 66/120/5 62/111/5
f 60/108/5 10/17/5 9/15/5
f 59/107/5 64/116/5 60/108/5
f 58/104/5 63/114/5 59/106/5
f 57/103/5 62/112/5 58/105/5
f 28/45/5 9/15/5 3/7/5
f 27/43/5 60/108/5 28/45/5
f 26/41/5 59/107/5 27/43/5
f 25/39/5 58/105/5 26/41/5
f 52/95/6 24/38/6 23/37/6
f 51/93/6 56/102/6 52/95/6
f 50/92/6 55/100/6 51/94/6
f 49/89/6 54/99/6 50/91/6
f 48/88/6 23/37/6 22/36/6
f 47/86/6 52/96/6 48/87/6
f 46/83/6 51/94/6 47/86/6
f 45/81/6 50/92/6 46/83/6
f 44/80/6 22/36/6 21/35/6
f 43/79/6 48/88/6 44/80/6
f 42/76/6 47/86/6 43/78/6
f 41/75/6 46/84/6 42/77/6
f 32/53/6 21/35/6 8/14/6
f 31/51/6 44/80/6 32/53/6
f 30/49/6 43/79/6 31/51/6
f 29/47/6 42/77/6 30/49/6
f 56/102/6 6/12/6 24/38/6
f 56/102/6 38/67/6 37/65/6
f 54/99/6 38/67/6 55/101/6
f 53/97/6 39/70/6 54/99/6
f 72/130/5 1/2/5 12/21/5
f 72/130/5 34/58/5 33/55/5
f 70/127/5 34/58/5 71/129/5
f 69/125/5 35/61/5 70/127/5
f 6/12/4 97/157/4 79/139/4
f 37/66/4 99/159/4 97/157/4
f 102/162/7 39/71/7 101/161/7
f 101/161/4 40/74/4 103/163/4
f 4/10/2 105/165/2 75/135/2
f 29/48/2 107/167/2 105/165/2
f 30/50/2 109/169/2 107/167/2
f 31/52/2 111/171/2 109/169/2
f 110/170/2 25/40/2 26/42/2
f 109/169/2 112/172/2 110/170/2
f 108/168/2 26/42/2 27/44/2
f 107/167/2 110/170/2 108/168/2
f 106/166/2 27/44/2 28/46/2
f 105/165/2 108/168/2 106/166/2
f 76/136/2 28/46/2 3/8/2
f 75/135/2 106/166/2 76/136/2
f 102/162/8 33/56/8 34/59/8
f 102/162/5 116/176/5 104/164/5
f 100/160/9 38/68/9 35/60/9
f 35/62/4 39/72/4 34/57/4
f 36/64/10 100/160/10 35/60/10
f 97/157/11 118/178/11 98/158/11
f 80/140/4 36/64/4 5/11/4
f 79/139/4 98/158/4 80/140/4
f 94/154/1 9/16/1 10/18/1
f 94/154/1 95/155/1 96/156/1
f 92/152/1 10/18/1 11/20/1
f 92/152/1 93/153/1 94/154/1
f 90/150/1 11/20/1 12/22/1
f 89/149/1 92/152/1 90/150/1
f 73/131/1 12/22/1 1/1/1
f 73/131/1 89/149/1 90/150/1
f 18/32/3 88/148/3 17/31/3
f 85/145/3 88/148/3 86/146/3
f 84/144/3 18/32/3 19/33/3
f 83/143/3 86/146/3 84/144/3
f 20/34/3 84/144/3 19/33/3
f 81/141/3 84/144/3 82/142/3
f 78/138/3 20/34/3 7/13/3
f 77/137/3 82/142/3 78/138/3
f 104/164/4 1/3/4 33/56/4
f 103/163/4 73/132/4 104/164/4
f 17/31/3 80/140/3 5/11/3
f 87/147/3 80/140/3 88/148/3
f 112/172/2 7/13/2 25/40/2
f 111/171/2 78/138/2 112/172/2
f 96/156/1 3/8/1 9/16/1
f 95/155/1 76/136/1 96/156/1
f 115/175/12 124/184/12 123/183/12
f 103/163/13 116/176/13 115/175/13
f 101/161/14 114/174/14 102/162/14
f 101/161/6 115/175/6 113/173/6
f 113/173/6 123/183/6 121/181/6
f 100/160/5 118/178/5 120/180/5
f 99/159/6 117/177/6 97/157/6
f 99/159/15 120/180/15 119/179/15
f 121/181/4 124/184/4 122/182/4
f 125/185/4 128/188/4 126/186/4
f 120/180/5 126/186/5 128/188/5
f 117/177/16 126/186/16 118/178/16
f 114/174/5 124/184/5 116/176/5
f 119/179/6 125/185/6 117/177/6
f 122/182/5 120/180/5 128/188/5
f 132/192/4 129/189/4 130/190/4
f 127/187/6 113/173/6 121/181/6
f 128/188/4 121/181/4 122/182/4
f 16/30/1 4/10/1 75/135/1
f 32/54/2 8/14/2 77/137/2
f 24/38/3 6/12/3 79/139/3
f 40/74/4 2/4/4 74/134/4
f 17/31/5 5/11/5 36/63/5
f 13/23/6 2/5/6 40/73/6
f 4/9/6 16/29/6 41/75/6
f 16/29/6 15/27/6 45/82/6
f 15/27/6 14/25/6 49/89/6
f 14/25/6 13/23/6 53/97/6
f 7/13/5 20/34/5 57/103/5
f 20/34/5 19/33/5 61/110/5
f 19/33/5 18/32/5 65/117/5
f 18/32/5 17/31/5 69/125/5
f 8/14/3 21/35/3 81/141/3
f 81/141/3 21/35/3 22/36/3
f 22/36/3 23/37/3 85/145/3
f 23/37/3 24/38/3 87/147/3
f 2/6/1 13/24/1 89/149/1
f 13/24/1 14/26/1 91/151/1
f 91/151/1 14/26/1 15/28/1
f 15/28/1 16/30/1 95/155/1
f 68/123/5 72/130/5 12/21/5
f 67/121/5 71/129/5 72/130/5
f 66/120/5 70/126/5 71/128/5
f 65/117/5 69/125/5 70/127/5
f 64/116/5 68/123/5 11/19/5
f 63/114/5 67/122/5 68/124/5
f 62/111/5 66/120/5 67/122/5
f 61/109/5 65/118/5 66/120/5
f 60/108/5 64/116/5 10/17/5
f 59/107/5 63/113/5 64/116/5
f 58/104/5 62/111/5 63/114/5
f 57/103/5 61/110/5 62/112/5
f 28/45/5 60/108/5 9/15/5
f 27/43/5 59/107/5 60/108/5
f 26/41/5 58/105/5 59/107/5
f 25/39/5 57/103/5 58/105/5
f 52/95/6 56/102/6 24/38/6
f 51/93/6 55/101/6 56/102/6
f 50/92/6 54/98/6 55/100/6
f 49/89/6 53/97/6 54/99/6
f 48/88/6 52/95/6 23/37/6
f 47/86/6 51/94/6 52/96/6
f 46/83/6 50/92/6 51/94/6
f 45/81/6 49/90/6 50/92/6
f 44/80/6 48/88/6 22/36/6
f 43/79/6 47/85/6 48/88/6
f 42/76/6 46/83/6 47/86/6
f 41/75/6 45/82/6 46/84/6
f 32/53/6 44/80/6 21/35/6
f 31/51/6 43/79/6 44/80/6
f 30/49/6 42/77/6 43/79/6
f 29/47/6 41/75/6 42/77/6
f 56/102/6 37/65/6 6/12/6
f 56/102/6 55/101/6 38/67/6
f 54/99/6 39/70/6 38/67/6
f 53/97/6 40/73/6 39/70/6
f 72/130/5 33/55/5 1/2/5
f 72/130/5 71/129/5 34/58/5
f 70/127/5 35/61/5 34/58/5
f 69/125/5 36/63/5 35/61/5
f 6/12/4 37/66/4 97/157/4
f 37/66/17 38/68/17 99/159/17
f 102/162/7 34/59/7 39/71/7
f 101/161/18 39/71/18 40/74/18
f 4/10/2 29/48/2 105/165/2
f 29/48/2 30/50/2 107/167/2
f 30/50/2 31/52/2 109/169/2
f 31/52/2 32/54/2 111/171/2
f 110/170/2 112/172/2 25/40/2
f 109/169/2 111/171/2 112/172/2
f 108/168/2 110/170/2 26/42/2
f 107/167/2 109/169/2 110/170/2
f 106/166/2 108/168/2 27/44/2
f 105/165/2 107/167/2 108/168/2
f 76/136/2 106/166/2 28/46/2
f 75/135/2 105/165/2 106/166/2
f 102/162/4 104/164/4 33/56/4
f 102/162/5 114/174/5 116/176/5
f 100/160/9 99/159/9 38/68/9
f 35/62/4 38/69/4 39/72/4
f 36/64/4 98/158/4 100/160/4
f 97/157/11 117/177/11 118/178/11
f 80/140/4 98/158/4 36/64/4
f 79/139/4 97/157/4 98/158/4
f 94/154/1 96/156/1 9/16/1
f 94/154/1 93/153/1 95/155/1
f 92/152/1 94/154/1 10/18/1
f 92/152/1 91/151/1 93/153/1
f 90/150/1 92/152/1 11/20/1
f 89/149/1 91/151/1 92/152/1
f 73/131/1 90/150/1 12/22/1
f 73/131/1 74/133/1 89/149/1
f 18/32/3 86/146/3 88/148/3
f 85/145/3 87/147/3 88/148/3
f 84/144/3 86/146/3 18/32/3
f 83/143/3 85/145/3 86/146/3
f 20/34/3 82/142/3 84/144/3
f 81/141/3 83/143/3 84/144/3
f 78/138/3 82/142/3 20/34/3
f 77/137/3 81/141/3 82/142/3
f 104/164/4 73/132/4 1/3/4
f 103/163/4 74/134/4 73/132/4
f 17/31/3 88/148/3 80/140/3
f 87/147/3 79/139/3 80/140/3
f 112/172/2 78/138/2 7/13/2
f 111/171/2 77/137/2 78/138/2
f 96/156/1 76/136/1 3/8/1
f 95/155/1 75/135/1 76/136/1
f 115/175/12 116/176/12 124/184/12
f 103/163/13 104/164/13 116/176/13
f 101/161/14 113/173/14 114/174/14
f 101/161/6 103/163/6 115/175/6
f 113/173/6 115/175/6 123/183/6
f 100/160/5 98/158/5 118/178/5
f 99/159/6 119/179/6 117/177/6
f 99/159/15 100/160/15 120/180/15
f 121/181/4 123/183/4 124/184/4
f 125/185/4 127/187/4 128/188/4
f 120/180/5 118/178/5 126/186/5
f 117/177/16 125/185/16 126/186/16
f 114/174/5 122/182/5 124/184/5
f 119/179/6 127/187/6 125/185/6
f 122/182/5 114/174/5 120/180/5
f 132/192/4 131/191/4 129/189/4
f 127/187/6 119/179/6 113/173/6
f 128/188/4 127/187/4 121/181/4
