# Blender 3.3.1
# www.blender.org
mtllib heavy_javelin.mtl
o heavy_javelin
v 0.722687 0.000000 0.197601
v -1.013786 -0.000000 0.197601
v 0.722687 -0.139725 0.139725
v -1.013786 -0.139725 0.139725
v 0.722687 -0.197601 -0.000000
v -1.013786 -0.197601 0.000000
v 0.722687 -0.139725 -0.139725
v -1.013786 -0.139725 -0.139725
v 0.722687 0.000000 -0.197601
v -1.013786 -0.000000 -0.197601
v 0.722687 0.139725 -0.139725
v -1.013786 0.139725 -0.139725
v 0.722687 0.197601 -0.000000
v -1.013786 0.197601 0.000000
v 0.722687 0.139725 0.139725
v -1.013786 0.139725 0.139725
v 0.777226 0.000000 0.324310
v 0.777226 -0.229322 0.229322
v 0.777226 -0.324310 -0.000000
v 0.777226 -0.229322 -0.229322
v 0.777225 0.000000 -0.324311
v 0.777225 0.229322 -0.229322
v 0.777226 0.324310 -0.000000
v 0.777226 0.229322 0.229322
v -1.255026 -0.000000 0.197601
v -1.255026 -0.139725 0.139725
v -1.255026 -0.197601 0.000000
v -1.255026 -0.139725 -0.139725
v -1.255026 -0.000000 -0.197601
v -1.255026 0.139725 -0.139725
v -1.255026 0.197601 0.000000
v -1.255026 0.139725 0.139725
v 1.309006 0.000000 0.288774
v 1.309006 -0.204194 0.204194
v 1.309006 -0.288774 -0.000000
v 1.309006 -0.204194 -0.204195
v 1.309006 0.000000 -0.288775
v 1.309006 0.204194 -0.204195
v 1.309006 0.288774 -0.000000
v 1.309006 0.204194 0.204194
v 1.471021 0.000000 0.141472
v -1.187527 -0.111187 0.403210
v -1.187527 -0.206491 0.363734
v -1.187528 -0.403209 -0.111187
v -1.187528 -0.363733 -0.206490
v -1.187529 0.111187 -0.403209
v -1.187529 0.206491 -0.363733
v -1.187528 0.403209 0.111188
v -1.187528 0.363733 0.206491
v -1.589479 -0.111187 0.403210
v -1.589479 -0.206491 0.363734
v -1.589480 -0.403209 -0.111187
v -1.589480 -0.363733 -0.206490
v -1.589480 0.111187 -0.403209
v -1.589480 0.206491 -0.363733
v -1.589480 0.403209 0.111188
v -1.589479 0.363733 0.206491
v 1.471021 -0.100036 0.100036
v 1.471021 -0.141473 -0.000000
v 1.471021 -0.100036 -0.100037
v 1.471021 0.000000 -0.141473
v 1.471021 0.100036 -0.100037
v 1.471021 0.141473 -0.000000
v 1.471021 0.100036 0.100036
v 1.043116 0.234030 0.234029
v 1.043116 0.000000 0.330968
v 1.043116 0.234030 -0.234030
v 1.043116 0.330968 -0.000000
v 1.043116 -0.234030 -0.234030
v 1.043116 0.000000 -0.330968
v 1.043116 -0.234030 0.234029
v 1.043116 -0.330968 -0.000000
vn -0.0000 -0.3827 0.9239
vn -0.0000 -0.9239 0.3827
vn -0.0000 -0.9239 -0.3827
vn -0.0000 -0.3827 -0.9239
vn -0.0000 0.3827 -0.9239
vn -0.0000 0.9239 -0.3827
vn -0.0000 -0.9583 -0.2856
vn -0.0000 0.9239 0.3827
vn -0.0000 0.3827 0.9239
vn -0.9065 -0.3902 -0.1616
vn -0.9065 0.3902 -0.1616
vn -0.9065 -0.1616 -0.3902
vn -0.9065 0.3902 0.1616
vn -0.9065 -0.3902 0.1616
vn -0.9065 0.1616 -0.3902
vn -0.9065 0.1616 0.3902
vn -0.9065 -0.1616 0.3902
vn 0.8011 -0.2291 0.5530
vn 0.8011 -0.5530 -0.2291
vn -0.0000 -0.2856 0.9583
vn 0.1451 0.3786 0.9141
vn 0.1451 0.9141 -0.3786
vn 0.1451 -0.3786 -0.9141
vn 0.1451 -0.9141 0.3786
vn 0.1451 0.9141 0.3786
vn 0.1451 0.3786 -0.9141
vn 0.1451 -0.9141 -0.3786
vn 0.1451 -0.3786 0.9141
vn 0.6432 0.7074 -0.2930
vn 0.6432 -0.7074 -0.2930
vn 0.6432 0.2930 -0.7074
vn 0.6432 0.2930 0.7074
vn 0.6432 -0.2930 -0.7074
vn 0.6432 -0.2930 0.7074
vn 0.6432 -0.7074 0.2930
vn 0.6432 0.7074 0.2930
vn -0.5708 -0.7586 -0.3142
vn -0.0000 -0.4757 0.8796
vn -0.5708 0.3142 -0.7586
vn -0.0000 0.8796 0.4757
vn -0.0000 0.9583 0.2856
vn -0.0000 0.4757 -0.8796
vn -0.5708 0.7586 0.3142
vn 0.8011 0.5530 0.2291
vn -0.0000 0.2856 -0.9583
vn -0.0000 -0.8796 -0.4757
vn 0.8011 0.2291 -0.5530
vn -0.5708 -0.3142 0.7586
vn -1.0000 -0.0000 -0.0000
vn 1.0000 -0.0000 -0.0000
vn -0.0231 -0.3826 0.9236
vn -0.0231 -0.9236 -0.3826
vn -0.0231 0.3826 -0.9236
vn -0.0231 0.9236 0.3826
vn -0.0231 -0.9236 0.3826
vn -0.0231 -0.3826 -0.9236
vn -0.0231 0.9236 -0.3826
vn -0.0231 0.3826 0.9236
vt 0.644755 0.138449
vt 0.123292 0.750590
vt 0.370048 0.066344
vt 0.174807 0.373767
vt 0.153856 0.673518
vt 0.644755 0.352530
vt 0.755499 0.138449
vt 0.177206 0.696676
vt 0.755499 0.352530
vt 0.386437 0.306449
vt 0.370048 0.136634
vt 0.218795 0.673518
vt 0.866242 0.138449
vt 0.253453 0.696676
vt 0.383125 0.268438
vt 0.341136 0.246966
vt 0.283735 0.673518
vt 0.866242 0.352530
vt 0.984368 0.313574
vt 0.976986 0.138449
vt 0.307367 0.750590
vt 0.976986 0.352530
vt 0.984368 0.099493
vt 0.383125 0.198148
vt 0.348674 0.708398
vt 0.222934 0.398431
vt 0.873624 0.313574
vt 0.307367 0.826837
vt 0.150743 0.373767
vt 0.363439 0.370776
vt 0.873624 0.099493
vt 0.283735 0.708398
vt 0.762881 0.313574
vt 0.253453 0.880751
vt 0.762881 0.099493
vt 0.373360 0.167262
vt 0.363439 0.300486
vt 0.218795 0.708398
vt 0.652138 0.313574
vt 0.177206 0.880751
vt 0.126680 0.373767
vt 0.337824 0.233619
vt 0.652137 0.099493
vt 0.153856 0.708398
vt 0.534012 0.138449
vt 0.541394 0.313574
vt 0.123292 0.826837
vt 0.541394 0.099493
vt 0.534012 0.352530
vt 0.216310 0.373767
vt 0.337824 0.163329
vt 0.088917 0.673518
vt 0.064273 0.726144
vt 0.163517 0.087011
vt 0.152760 0.637658
vt 0.062403 0.188125
vt 0.277899 0.637658
vt 0.062403 0.331122
vt 0.366385 0.726144
vt 0.163517 0.432236
vt 0.366385 0.851283
vt 0.306514 0.432236
vt 0.407628 0.331122
vt 0.277899 0.939770
vt 0.152760 0.939770
vt 0.407628 0.188125
vt 0.064273 0.851283
vt 0.306514 0.087011
vt 0.135905 0.134923
vt 0.192247 0.373767
vt 0.153856 0.690958
vt 0.608651 0.654016
vt 0.403877 0.306449
vt 0.135905 0.205213
vt 0.218795 0.690958
vt 0.608651 0.773884
vt 0.185608 0.254915
vt 0.358576 0.246966
vt 0.283735 0.690958
vt 0.693410 0.858643
vt 0.348674 0.690958
vt 0.255898 0.254915
vt 0.240374 0.398431
vt 0.813278 0.858643
vt 0.283735 0.690958
vt 0.305600 0.205213
vt 0.168183 0.373767
vt 0.898037 0.773884
vt 0.390800 0.167262
vt 0.305600 0.134923
vt 0.218795 0.690958
vt 0.898037 0.654016
vt 0.153856 0.690958
vt 0.255898 0.085220
vt 0.144120 0.373767
vt 0.813278 0.569256
vt 0.198870 0.373767
vt 0.185608 0.085220
vt 0.088917 0.690958
vt 0.693410 0.569256
vt 0.171352 0.105925
vt 0.081317 0.195959
vt 0.081317 0.323288
vt 0.171352 0.413322
vt 0.298680 0.413322
vt 0.388714 0.323288
vt 0.388714 0.195959
vt 0.298680 0.105925
vt 0.171352 0.105925
vt 0.337824 0.052996
vt 0.171495 0.408646
vt 0.383125 0.371388
vt 0.383125 0.281785
vt 0.337824 0.149981
vt 0.370048 0.142599
vt 0.415349 0.281785
vt 0.337824 0.281845
vt 0.415349 0.184800
vt 0.219622 0.373767
vt 0.370048 0.052996
vt 0.147431 0.408646
vt 0.415349 0.184800
vt 0.370048 0.232201
vt 0.370048 0.142599
vt 0.395663 0.287139
vt 0.123368 0.408646
vt 0.370048 0.246966
vt 0.407189 0.371388
vt 0.407189 0.281785
vt 0.219622 0.398431
vt 0.370048 0.149981
vt 0.103681 0.121575
vt 0.195559 0.408646
vt 0.407189 0.371388
vt 0.103681 0.218560
vt 0.407189 0.281785
vt 0.361888 0.281845
vt 0.172260 0.287139
vt 0.394111 0.142599
vt 0.243686 0.373767
vt 0.269245 0.287139
vt 0.394111 0.052996
vt 0.171495 0.408646
vt 0.337824 0.218560
vt 0.394111 0.232201
vt 0.337824 0.121575
vt 0.394111 0.142599
vt 0.269245 0.052996
vt 0.147431 0.408646
vt 0.431252 0.371388
vt 0.195558 0.398431
vt 0.172260 0.052996
vt 0.431252 0.281785
vt 0.081317 0.195959
vt 0.081317 0.323288
vt 0.171352 0.413322
vt 0.298680 0.413322
vt 0.388714 0.323288
vt 0.388714 0.195959
vt 0.298680 0.105925
vt 0.304011 0.093054
vt 0.166020 0.093054
vt 0.401585 0.328619
vt 0.401585 0.190628
vt 0.166020 0.426193
vt 0.304011 0.426193
vt 0.068446 0.190628
vt 0.068446 0.328619
s 0
f 2/6/1 3/7/1 1/1/1
f 3/7/2 6/18/2 5/13/2
f 6/18/3 7/20/3 5/13/3
f 8/23/4 9/27/4 7/19/4
f 10/31/5 11/33/5 9/27/5
f 12/35/6 13/39/6 11/33/6
f 26/73/7 43/113/7 51/136/7
f 14/43/8 15/46/8 13/39/8
f 16/49/9 1/1/9 15/45/9
f 5/14/10 20/59/10 19/57/10
f 13/40/11 22/64/11 11/34/11
f 9/28/12 20/59/12 7/21/12
f 13/40/13 24/67/13 23/65/13
f 5/14/14 18/55/14 3/8/14
f 9/28/15 22/64/15 21/61/15
f 1/2/16 24/67/16 15/47/16
f 3/8/17 17/53/17 1/2/17
f 42/110/18 4/11/18 2/3/18
f 44/116/19 8/24/19 6/15/19
f 32/97/20 49/130/20 57/151/20
f 66/162/21 40/108/21 65/161/21
f 68/164/22 38/106/22 67/163/22
f 37/105/23 69/165/23 70/166/23
f 35/103/24 71/167/24 72/168/24
f 65/161/25 39/107/25 68/164/25
f 38/106/26 70/166/26 67/163/26
f 36/104/27 72/168/27 69/165/27
f 34/102/28 66/162/28 71/167/28
f 63/159/29 38/106/29 39/107/29
f 60/156/30 35/103/30 36/104/30
f 38/106/31 61/157/31 37/105/31
f 41/109/32 40/108/32 33/101/32
f 61/157/33 36/104/33 37/105/33
f 34/102/34 41/109/34 33/101/34
f 59/155/35 34/102/35 35/103/35
f 40/108/36 63/159/36 39/107/36
f 31/94/37 57/152/37 56/148/37
f 27/78/38 44/117/38 6/16/38
f 26/74/39 50/132/39 25/69/39
f 25/70/40 42/111/40 2/4/40
f 10/32/4 28/81/4 29/85/4
f 30/89/41 47/124/41 55/147/41
f 31/95/42 48/126/42 14/41/42
f 28/82/43 52/138/43 27/77/43
f 4/12/2 27/79/2 6/17/2
f 48/127/44 16/51/44 14/42/44
f 28/83/45 45/119/45 53/140/45
f 29/87/46 46/121/46 10/29/46
f 46/122/47 12/37/47 10/30/47
f 30/90/48 54/144/48 29/86/48
f 14/44/6 30/91/6 31/93/6
f 16/52/9 25/71/9 2/5/9
f 42/112/1 51/136/1 43/113/1
f 52/139/3 45/120/3 44/115/3
f 46/123/5 55/147/5 47/124/5
f 48/128/8 57/153/8 49/129/8
f 31/96/49 29/88/49 27/80/49
f 59/155/50 61/157/50 63/159/50
f 18/56/51 66/162/51 17/54/51
f 69/165/52 19/58/52 20/60/52
f 67/163/53 21/62/53 22/63/53
f 24/68/54 68/164/54 23/66/54
f 72/168/55 18/56/55 19/58/55
f 70/166/56 20/60/56 21/62/56
f 23/66/57 67/163/57 22/63/57
f 17/54/58 65/161/58 24/68/58
f 2/6/1 4/9/1 3/7/1
f 3/7/2 4/9/2 6/18/2
f 6/18/3 8/22/3 7/20/3
f 8/23/4 10/31/4 9/27/4
f 10/31/5 12/35/5 11/33/5
f 12/35/6 14/43/6 13/39/6
f 26/73/7 4/10/7 43/113/7
f 14/43/8 16/48/8 15/46/8
f 16/49/9 2/6/9 1/1/9
f 5/14/10 7/21/10 20/59/10
f 13/40/11 23/65/11 22/64/11
f 9/28/12 21/61/12 20/59/12
f 13/40/13 15/47/13 24/67/13
f 5/14/14 19/57/14 18/55/14
f 9/28/15 11/34/15 22/64/15
f 1/2/16 17/53/16 24/67/16
f 3/8/17 18/55/17 17/53/17
f 42/110/18 43/114/18 4/11/18
f 44/116/19 45/118/19 8/24/19
f 32/97/20 16/50/20 49/130/20
f 66/162/21 33/101/21 40/108/21
f 68/164/22 39/107/22 38/106/22
f 37/105/23 36/104/23 69/165/23
f 35/103/24 34/102/24 71/167/24
f 65/161/25 40/108/25 39/107/25
f 38/106/26 37/105/26 70/166/26
f 36/104/27 35/103/27 72/168/27
f 34/102/28 33/101/28 66/162/28
f 63/159/29 62/158/29 38/106/29
f 60/156/30 59/155/30 35/103/30
f 38/106/31 62/158/31 61/157/31
f 41/109/32 64/160/32 40/108/32
f 61/157/33 60/156/33 36/104/33
f 34/102/34 58/154/34 41/109/34
f 59/155/35 58/154/35 34/102/35
f 40/108/36 64/160/36 63/159/36
f 31/94/37 32/98/37 57/152/37
f 27/78/38 52/137/38 44/117/38
f 26/74/39 51/135/39 50/132/39
f 25/70/40 50/133/40 42/111/40
f 10/32/4 8/25/4 28/81/4
f 30/89/41 12/36/41 47/124/41
f 31/95/42 56/149/42 48/126/42
f 28/82/43 53/141/43 52/138/43
f 4/12/2 26/75/2 27/79/2
f 48/127/44 49/131/44 16/51/44
f 28/83/45 8/26/45 45/119/45
f 29/87/46 54/143/46 46/121/46
f 46/122/47 47/125/47 12/37/47
f 30/90/48 55/146/48 54/144/48
f 14/44/6 12/38/6 30/91/6
f 16/52/9 32/99/9 25/71/9
f 42/112/1 50/134/1 51/136/1
f 52/139/3 53/142/3 45/120/3
f 46/123/5 54/145/5 55/147/5
f 48/128/8 56/150/8 57/153/8
f 27/80/49 26/76/49 25/72/49
f 25/72/49 32/100/49 31/96/49
f 31/96/49 30/92/49 29/88/49
f 29/88/49 28/84/49 27/80/49
f 27/80/49 25/72/49 31/96/49
f 63/159/50 64/160/50 41/109/50
f 41/109/50 58/154/50 59/155/50
f 59/155/50 60/156/50 61/157/50
f 61/157/50 62/158/50 63/159/50
f 63/159/50 41/109/50 59/155/50
f 18/56/51 71/167/51 66/162/51
f 69/165/52 72/168/52 19/58/52
f 67/163/53 70/166/53 21/62/53
f 24/68/54 65/161/54 68/164/54
f 72/168/55 71/167/55 18/56/55
f 70/166/56 69/165/56 20/60/56
f 23/66/57 68/164/57 67/163/57
f 17/54/58 66/162/58 65/161/58
