# Blender 3.3.1
# www.blender.org
mtllib plasma.mtl
o plasma
v 0.256962 0.287531 -0.287531
v 0.256962 -0.287531 -0.287531
v 0.256962 0.287531 0.287531
v 0.256962 -0.287531 0.287531
v -0.262517 0.276859 -0.276859
v -0.262517 -0.276859 -0.276859
v -0.262517 0.276859 0.276859
v -0.262517 -0.276859 0.276859
v -0.300603 -0.377205 -0.125735
v -0.300603 -0.377205 0.125735
v 0.296516 0.391745 -0.130582
v 0.296516 0.391745 0.130582
v -0.300603 0.377205 0.125735
v -0.300603 0.377205 -0.125735
v 0.296516 -0.391745 0.130582
v 0.296516 -0.391745 -0.130582
v 0.296516 0.130582 -0.391745
v 0.296516 -0.130582 -0.391745
v -0.300603 -0.125735 0.377205
v -0.300603 0.125735 0.377205
v 0.296516 0.130582 0.391745
v 0.296516 -0.130582 0.391745
v -0.300603 0.125735 -0.377205
v -0.300603 -0.125735 -0.377205
v 0.444560 0.171847 -0.171847
v 0.444560 -0.171847 -0.171847
v 0.444560 0.171847 0.171847
v 0.444560 -0.171847 0.171847
v -0.400980 0.092630 0.092630
v -0.400980 -0.092630 0.092630
v -0.400980 0.092630 -0.092630
v -0.400980 -0.092630 -0.092630
vn -0.0265 0.8328 0.5529
vn -0.0265 0.5529 0.8328
vn -0.8830 0.3318 -0.3318
vn -0.0265 -0.8328 0.5529
vn 0.6573 0.5329 0.5329
vn -0.0265 0.5529 -0.8328
vn 0.6573 0.5329 -0.5329
vn 0.8295 0.5585 -0.0000
vn -0.0265 -0.8328 -0.5529
vn -0.0243 -0.9997 -0.0000
vn -0.8830 0.3318 0.3318
vn -0.9431 0.3326 -0.0000
vn -0.0265 0.8328 -0.5529
vn -0.0243 0.9997 -0.0000
vn -0.9431 -0.3326 -0.0000
vn -1.0000 -0.0000 -0.0000
vn -0.8830 -0.3318 0.3318
vn -0.9431 -0.0000 0.3326
vn 0.8295 -0.5585 -0.0000
vn 1.0000 -0.0000 -0.0000
vn 0.6573 -0.5329 -0.5329
vn 0.8295 -0.0000 -0.5585
vn -0.0265 -0.5529 -0.8328
vn -0.0243 -0.0000 -0.9997
vn 0.6573 -0.5329 0.5329
vn 0.8295 -0.0000 0.5585
vn -0.8830 -0.3318 -0.3318
vn -0.9431 -0.0000 -0.3326
vn -0.0265 -0.5529 0.8328
vn -0.0243 -0.0000 0.9997
vt 0.625000 0.500000
vt 0.375000 0.500000
vt 0.625000 0.750000
vt 0.375000 0.750000
vt 0.625000 0.250000
vt 0.875000 0.500000
vt 0.125000 0.500000
vt 0.375000 0.250000
vt 0.875000 0.750000
vt 0.625000 1.000000
vt 0.625000 0.000000
vt 0.125000 0.750000
vt 0.375000 0.000000
vt 0.375000 1.000000
vt 0.125000 0.583333
vt 0.375000 0.166667
vt 0.125000 0.666667
vt 0.375000 0.083333
vt 0.625000 0.583333
vt 0.625000 0.666667
vt 0.625000 0.083333
vt 0.875000 0.666667
vt 0.625000 0.166667
vt 0.875000 0.583333
vt 0.375000 0.666667
vt 0.375000 0.583333
vt 0.541667 0.500000
vt 0.458333 0.500000
vt 0.458333 0.000000
vt 0.458333 1.000000
vt 0.541667 0.000000
vt 0.541667 1.000000
vt 0.541667 0.750000
vt 0.458333 0.750000
vt 0.541667 0.250000
vt 0.458333 0.250000
vt 0.541667 0.583333
vt 0.458333 0.583333
vt 0.541667 0.666667
vt 0.458333 0.666667
vt 0.541667 0.083333
vt 0.458333 0.083333
vt 0.541667 0.166667
vt 0.458333 0.166667
s 0
usemtl Material
f 12/20/1 13/22/1 7/9/1 3/3/1
f 21/33/2 3/3/2 7/10/2 20/32/2
f 31/43/3 14/23/3 5/5/3 23/35/3
f 10/17/4 15/25/4 4/4/4 8/12/4
f 27/39/5 12/20/5 3/3/5 21/33/5
f 23/35/6 5/5/6 1/1/6 17/27/6
f 17/27/7 1/1/7 11/19/7 25/37/7
f 25/37/8 11/19/8 12/20/8 27/39/8
f 6/7/9 2/2/9 16/26/9 9/15/9
f 9/15/10 16/26/10 15/25/10 10/17/10
f 20/31/11 7/11/11 13/21/11 29/41/11
f 29/41/12 13/21/12 14/23/12 31/43/12
f 1/1/13 5/6/13 14/24/13 11/19/13
f 11/19/14 14/24/14 13/22/14 12/20/14
f 10/18/15 30/42/15 32/44/15 9/16/15
f 30/42/16 29/41/16 31/43/16 32/44/16
f 8/13/17 19/29/17 30/42/17 10/18/17
f 19/29/18 20/31/18 29/41/18 30/42/18
f 16/26/19 26/38/19 28/40/19 15/25/19
f 26/38/20 25/37/20 27/39/20 28/40/20
f 2/2/21 18/28/21 26/38/21 16/26/21
f 18/28/22 17/27/22 25/37/22 26/38/22
f 6/8/23 24/36/23 18/28/23 2/2/23
f 24/36/24 23/35/24 17/27/24 18/28/24
f 15/25/25 28/40/25 22/34/25 4/4/25
f 28/40/26 27/39/26 21/33/26 22/34/26
f 9/16/27 32/44/27 24/36/27 6/8/27
f 32/44/28 31/43/28 23/35/28 24/36/28
f 4/4/29 22/34/29 19/30/29 8/14/29
f 22/34/30 21/33/30 20/32/30 19/30/30
