# Blender v2.83.5 OBJ File: ''
# www.blender.org
mtllib spaceship.mtl
o spaceship
v 0.500468 0.000000 -0.000000
v -0.325388 0.437969 0.243338
v -0.325388 0.412673 -0.243338
v -0.325388 -0.437969 0.243338
v -0.325388 -0.412673 -0.243338
v -0.325388 0.000000 -0.400448
v -0.325388 -0.000000 0.583562
v 0.218759 0.224469 -0.129147
v -0.136722 0.363945 -0.203746
v 0.205062 -0.207171 0.139466
v -0.123026 -0.335899 0.208316
v -0.136722 -0.363945 -0.203746
v 0.218759 -0.224469 -0.129147
v -0.123026 0.335899 0.208316
v 0.205062 0.207171 0.139466
v 0.185825 0.000000 -0.281966
v -0.102234 0.000000 -0.380521
v -0.123026 -0.000000 0.543712
v 0.205062 -0.000000 0.301047
v 0.170708 -0.163785 0.165348
v -0.088672 -0.265555 0.219779
v -0.088672 0.265555 0.219779
v 0.170708 0.163785 0.165348
v -0.088672 -0.000000 0.484937
v 0.170708 -0.000000 0.323122
v -0.325388 -0.473246 -0.087646
v -0.325388 -0.473246 0.087646
v -0.325388 0.473246 0.087646
v -0.325388 0.473246 -0.087646
v -0.325388 -0.000000 0.228282
v -0.325388 0.000000 -0.228282
v -0.136722 0.383794 0.067915
v -0.136722 0.383794 -0.067915
v 0.218759 0.235976 0.043049
v 0.218759 0.235976 -0.043049
v 0.218759 -0.239812 0.043049
v 0.218759 -0.236725 -0.043049
v -0.136722 -0.387629 0.067915
v -0.136722 -0.387629 -0.067915
v -0.325388 -0.103427 -0.036319
v -0.325388 -0.103427 0.036319
v -0.325388 0.103427 0.036319
v -0.325388 0.103427 -0.036319
v -0.325388 -0.000000 0.102215
v -0.325388 0.000000 -0.102215
v -0.520913 -0.187094 -0.065699
v -0.520913 -0.187094 0.065699
v -0.520913 0.187094 0.065699
v -0.520913 0.187094 -0.065699
v -0.520913 -0.000000 0.184901
v -0.520913 0.000000 -0.184901
v -0.520913 -0.162609 -0.057101
v -0.520913 -0.162609 0.057101
v -0.520913 0.162609 0.057101
v -0.520913 0.162609 -0.057101
v -0.520913 -0.000000 0.160704
v -0.520913 0.000000 -0.160704
v -0.476168 -0.157025 -0.055140
v -0.476168 -0.157025 0.055140
v -0.476168 0.157025 0.055140
v -0.476168 0.157025 -0.055140
v -0.476168 -0.000000 0.155185
v -0.476168 0.000000 -0.155185
vt 0.699071 0.787338
vt 0.699071 0.743110
vt 0.824071 0.743110
vt 0.824071 0.787338
vt 0.466146 0.680947
vt 0.382812 0.680946
vt 0.382812 0.636719
vt 0.466146 0.636719
vt 0.462873 0.779560
vt 0.462873 0.696226
vt 0.587873 0.696226
vt 0.587873 0.779560
vt 0.087891 0.629514
vt 0.030888 0.751953
vt 0.030888 0.629514
vt 0.653914 0.762334
vt 0.653914 0.679001
vt 0.776353 0.762334
vt 0.144894 0.629514
vt 0.087891 0.751953
vt 0.337873 0.779560
vt 0.337873 0.696226
vt 0.574071 0.787338
vt 0.574071 0.743110
vt 0.716797 0.751953
vt 0.716797 0.629514
vt 0.841797 0.629514
vt 0.824071 0.787338
vt 0.699071 0.787338
vt 0.304845 0.718502
vt 0.304845 0.762730
vt 0.247842 0.762730
vt 0.247842 0.718502
vt 0.304845 0.846063
vt 0.247842 0.846063
vt 0.526353 0.762334
vt 0.526353 0.679001
vt 0.570581 0.679001
vt 0.570581 0.762334
vt 0.190839 0.762730
vt 0.190839 0.718502
vt 0.190839 0.846063
vt 0.382812 0.886719
vt 0.382812 0.764280
vt 0.466146 0.764280
vt 0.841797 0.751953
vt 0.966797 0.629514
vt 0.382812 0.764280
vt 0.382812 0.680946
vt 0.697111 0.572916
vt 0.697111 0.489583
vt 0.822111 0.489583
vt 0.822111 0.572916
vt 0.947111 0.489583
vt 0.947111 0.572916
vt 0.716797 0.629514
vt 0.841797 0.629514
vt 0.574071 0.787338
vt 0.966797 0.629514
vt 0.727738 0.747903
vt 0.644405 0.747903
vt 0.644405 0.747903
vt 0.727738 0.747903
vt 0.632812 0.764280
vt 0.549479 0.764280
vt 0.549479 0.680946
vt 0.632812 0.680946
vt 0.549479 0.886719
vt 0.466146 0.886719
vt 0.570581 0.929001
vt 0.570581 0.845668
vt 0.653914 0.845667
vt 0.653914 0.929001
vt 0.526353 0.929001
vt 0.526353 0.845667
vt 0.475677 0.830570
vt 0.475677 0.747236
vt 0.600677 0.747236
vt 0.600677 0.830570
vt 0.310804 0.730344
vt 0.435804 0.730344
vt 0.435804 0.730344
vt 0.310804 0.730344
vt 0.776353 0.929001
vt 0.776353 0.845668
vt 0.725677 0.747236
vt 0.725677 0.830570
vt 0.725677 0.663903
vt 0.725677 0.747236
vt 0.725677 0.663903
vt 0.549479 0.636719
vt 0.632812 0.636719
vt 0.401353 0.215707
vt 0.276353 0.215707
vt 0.276353 0.215707
vt 0.401353 0.215707
vt 0.526353 0.215707
vt 0.526353 0.215707
vt 0.600677 0.747236
vt 0.466146 0.636719
vt 0.549479 0.636719
vt 0.475677 0.747236
vt 0.342295 0.757413
vt 0.467295 0.757413
vt 0.467295 0.757413
vt 0.342295 0.757413
vt 0.276353 0.132374
vt 0.401353 0.132374
vt 0.401353 0.132374
vt 0.276353 0.132374
vt 0.526353 0.132374
vt 0.526353 0.132374
vt 0.526353 0.132374
vt 0.401353 0.132374
vt 0.276353 0.132374
vt 0.535527 0.216616
vt 0.452194 0.216616
vt 0.452194 0.216616
vt 0.535527 0.216616
vt 0.401353 0.215707
vt 0.276353 0.215707
vt 0.276353 0.215707
vt 0.401353 0.215707
vt 0.526353 0.215707
vt 0.526353 0.215707
vt 0.542097 0.311895
vt 0.458764 0.311895
vt 0.458764 0.311895
vt 0.542097 0.311895
vt 0.315108 0.105643
vt 0.315108 0.022310
vt 0.440108 0.022310
vt 0.440108 0.105643
vt 0.602879 0.107193
vt 0.602879 0.023860
vt 0.727879 0.023860
vt 0.727879 0.107193
vt 0.526353 0.132374
vt 0.401353 0.132374
vt 0.276353 0.132374
vt 0.638067 0.213464
vt 0.554734 0.213464
vt 0.554734 0.213464
vt 0.638067 0.213464
vn 0.2919 -0.6290 0.7205
vn 0.4471 -0.8636 0.2331
vn -1.0000 -0.0000 0.0000
vn 0.6177 -0.3786 -0.6893
vn 0.6388 0.7075 0.3021
vn 0.6177 0.3786 -0.6893
vn 0.2919 0.6290 0.7205
vn 0.6264 0.4794 0.6147
vn 0.7710 -0.4500 0.4506
vn 0.1770 0.3954 -0.9013
vn 0.3225 0.4632 -0.8255
vn 0.4538 0.8632 0.2215
vn 0.3928 0.8749 0.2834
vn 0.1770 -0.3954 -0.9013
vn 0.3225 -0.4632 -0.8255
vn 0.6412 -0.6946 0.3262
vn 0.3928 -0.8663 0.3086
vn 0.6264 -0.4794 0.6147
vn 0.3063 -0.2970 0.9044
vn 0.3986 0.6436 0.6534
vn 0.3986 -0.6436 0.6534
vn 0.1162 0.6480 0.7527
vn 0.7710 0.4500 0.4506
vn 0.1162 -0.6480 0.7527
vn 0.3063 0.2970 0.9044
vn 0.3916 -0.9083 -0.1471
vn 0.3873 -0.9219 -0.0128
vn 0.6492 -0.7530 -0.1072
vn 0.6455 -0.7632 -0.0274
vn 0.3870 0.9130 -0.1290
vn 0.3840 0.9234 -0.0000
vn 0.3672 0.8966 -0.2474
vn 0.4284 0.9036 0.0000
vn 0.6479 0.7550 -0.1009
vn 0.6421 0.7666 0.0000
vn 0.3599 -0.8963 -0.2591
vn 0.4132 -0.9106 0.0000
vn 0.3359 -0.5061 -0.7944
vn 0.3359 0.5061 -0.7944
vn 0.3934 0.9194 0.0000
vn 0.3359 0.5061 0.7944
vn 0.3359 -0.5061 0.7944
vn 0.3934 -0.9194 0.0000
vn -0.1035 0.5344 0.8388
vn -0.1035 -0.5344 0.8388
vn -0.1238 -0.9923 0.0000
vn -0.1035 -0.5344 -0.8388
vn -0.1035 0.5344 -0.8388
vn -0.1238 0.9923 0.0000
usemtl spaceshipTexture
s off
f 18/1/1 7/2/1 4/3/1 11/4/1
f 38/5/2 11/6/2 4/7/2 27/8/2
f 30/9/3 7/10/3 2/11/3 28/12/3
f 16/13/4 1/14/4 13/15/4
f 34/16/5 15/17/5 1/18/5
f 8/19/6 1/20/6 16/13/6
f 27/21/3 4/22/3 7/10/3 30/9/3
f 14/23/7 2/24/7 7/2/7 18/1/7
f 1/25/8 15/26/8 19/27/8
f 18/1/9 11/4/9 21/28/9 24/29/9
f 3/30/10 9/31/10 17/32/10 6/33/10
f 9/31/11 8/34/11 16/35/11 17/32/11
f 28/36/12 2/37/12 14/38/12 32/39/12
f 32/39/13 14/38/13 15/17/13 34/16/13
f 6/33/14 17/32/14 12/40/14 5/41/14
f 17/32/15 16/35/15 13/42/15 12/40/15
f 1/43/16 10/44/16 36/45/16
f 36/45/17 10/44/17 11/6/17 38/5/17
f 1/46/18 19/27/18 10/47/18
f 11/6/19 10/44/19 20/48/19 21/49/19
f 23/50/20 22/51/20 24/52/20 25/53/20
f 25/53/21 24/52/21 21/54/21 20/55/21
f 19/27/22 15/26/22 23/56/22 25/57/22
f 14/23/23 18/1/23 24/29/23 22/58/23
f 10/47/24 19/27/24 25/57/24 20/59/24
f 15/60/25 14/61/25 22/62/25 23/63/25
f 13/64/26 37/65/26 39/66/26 12/67/26
f 37/65/27 36/45/27 38/5/27 39/66/27
f 1/68/28 37/65/28 13/64/28
f 1/69/29 36/45/29 37/65/29
f 9/70/30 33/71/30 35/72/30 8/73/30
f 33/71/31 32/39/31 34/16/31 35/72/31
f 3/74/32 29/75/32 33/71/32 9/70/32
f 29/75/33 28/36/33 32/39/33 33/71/33
f 5/76/3 26/77/3 31/78/3 6/79/3
f 27/80/3 30/81/3 44/82/3 41/83/3
f 8/73/34 35/72/34 1/84/34
f 35/72/35 34/16/35 1/85/35
f 6/79/3 31/78/3 29/86/3 3/87/3
f 28/88/3 29/86/3 43/89/3 42/90/3
f 12/67/36 39/66/36 26/91/36 5/92/36
f 39/66/37 38/5/37 27/8/37 26/91/37
f 45/93/38 40/94/38 46/95/38 51/96/38
f 43/97/39 45/93/39 51/96/39 49/98/39
f 29/86/3 31/78/3 45/99/3 43/89/3
f 26/91/3 27/8/3 41/100/3 40/101/3
f 31/78/3 26/77/3 40/102/3 45/99/3
f 30/103/3 28/104/3 42/105/3 44/106/3
f 47/107/3 50/108/3 56/109/3 53/110/3
f 50/108/3 48/111/3 54/112/3 56/109/3
f 42/113/40 43/97/40 49/98/40 48/111/40
f 44/114/41 42/113/41 48/111/41 50/108/41
f 41/115/42 44/114/42 50/108/42 47/107/42
f 40/116/43 41/117/43 47/118/43 46/119/43
f 57/120/44 52/121/44 58/122/44 63/123/44
f 55/124/45 57/120/45 63/123/45 61/125/45
f 46/126/3 47/127/3 53/128/3 52/129/3
f 49/98/3 51/96/3 57/120/3 55/124/3
f 51/96/3 46/95/3 52/121/3 57/120/3
f 48/111/3 49/98/3 55/124/3 54/112/3
f 58/130/3 59/131/3 62/132/3 63/133/3
f 63/134/3 62/135/3 60/136/3 61/137/3
f 54/112/46 55/124/46 61/125/46 60/138/46
f 56/109/47 54/112/47 60/138/47 62/139/47
f 53/110/48 56/109/48 62/139/48 59/140/48
f 52/141/49 53/142/49 59/143/49 58/144/49
