# Blender 3.3.1
# www.blender.org
o spare_parts
v 1.867061 0.000000 -0.086583
v -1.055614 0.000000 -0.086583
v 1.740856 0.000000 -0.086583
v 1.803959 0.000000 -0.086583
v 1.867061 -0.000000 0.203271
v -1.055614 -0.000000 0.203271
v 1.740856 -0.000000 0.203271
v 1.803959 -0.000000 0.203271
v -1.016641 -0.236801 -0.047610
v -1.059185 -0.243373 -0.047610
v -1.089821 -0.227721 -0.086583
v 1.701883 -0.236801 -0.047610
v 1.740856 -0.227622 -0.086583
v 1.754000 -0.230587 -0.047610
v -1.178110 -0.462319 -0.047610
v -1.216804 -0.461501 -0.086583
v 1.906034 -0.094188 -0.047610
v 1.867061 -0.142380 -0.086583
v -1.324847 -0.619863 -0.047610
v -1.364061 -0.629856 -0.047610
v -1.366631 -0.622363 -0.086583
v -1.465488 -0.640485 -0.047610
v -1.524957 -0.639091 -0.047610
v -1.491694 -0.635469 -0.086583
v 1.867061 0.000000 -0.086583
v 1.906034 0.000000 -0.047610
v -1.670476 -0.612191 -0.047610
v -1.636266 -0.608744 -0.086583
v -1.844365 -0.526704 -0.047610
v -1.806157 -0.525223 -0.086583
v -1.978014 -0.336500 -0.047610
v -1.943706 -0.330310 -0.047610
v -1.938436 -0.336969 -0.086583
v 1.867061 -0.144322 -0.086583
v 1.867061 -0.156654 -0.047610
v -1.512466 -0.327737 -0.047610
v -1.479688 -0.341263 -0.086583
v -1.554453 -0.333953 -0.047610
v -1.359394 0.000000 -0.047610
v -1.320299 0.000000 -0.086583
v 1.803959 -0.206968 -0.047610
v 1.803959 -0.196426 -0.086583
v -1.016641 -0.236801 0.164298
v -1.089821 -0.227721 0.203271
v -1.059185 -0.243373 0.164298
v 1.701883 -0.236801 0.164298
v 1.754000 -0.230587 0.164298
v 1.740856 -0.227622 0.203271
v -1.216804 -0.461501 0.203271
v -1.178110 -0.462319 0.164298
v 1.867061 -0.142380 0.203271
v 1.906034 -0.094188 0.164298
v -1.324847 -0.619863 0.164298
v -1.366631 -0.622363 0.203271
v -1.364061 -0.629856 0.164298
v -1.465488 -0.640485 0.164298
v -1.491694 -0.635469 0.203271
v -1.524957 -0.639091 0.164298
v 1.906034 -0.000000 0.164298
v 1.867061 -0.000000 0.203271
v -1.636266 -0.608744 0.203271
v -1.670476 -0.612191 0.164298
v -1.806157 -0.525223 0.203271
v -1.844365 -0.526704 0.164298
v -1.978014 -0.336500 0.164298
v -1.938436 -0.336969 0.203271
v -1.943706 -0.330310 0.164298
v 1.867061 -0.156654 0.164298
v 1.867061 -0.144322 0.203271
v -1.512466 -0.327737 0.164298
v -1.554453 -0.333953 0.164298
v -1.479688 -0.341263 0.203271
v -1.320299 -0.000000 0.203271
v -1.359394 -0.000000 0.164298
v 1.803959 -0.196426 0.203271
v 1.803959 -0.206968 0.164298
v -1.016641 0.236801 -0.047610
v -1.089821 0.227721 -0.086583
v -1.059185 0.243373 -0.047610
v 1.701883 0.236801 -0.047610
v 1.754000 0.230587 -0.047610
v 1.740856 0.227622 -0.086583
v -1.216804 0.461501 -0.086583
v -1.178110 0.462319 -0.047610
v 1.867061 0.142380 -0.086583
v 1.906034 0.094188 -0.047610
v -1.324847 0.619863 -0.047610
v -1.366631 0.622363 -0.086583
v -1.364061 0.629856 -0.047610
v -1.465488 0.640485 -0.047610
v -1.491694 0.635469 -0.086583
v -1.524957 0.639091 -0.047610
v -1.636266 0.608744 -0.086583
v -1.670476 0.612191 -0.047610
v -1.806157 0.525223 -0.086583
v -1.844365 0.526704 -0.047610
v -1.978014 0.336500 -0.047610
v -1.938436 0.336969 -0.086583
v -1.943706 0.330310 -0.047610
v 1.867061 0.156654 -0.047610
v 1.867061 0.144322 -0.086583
v -1.512466 0.327737 -0.047610
v -1.554453 0.333953 -0.047610
v -1.479688 0.341263 -0.086583
v 1.803959 0.196426 -0.086583
v 1.803959 0.206968 -0.047610
v -1.016641 0.236801 0.164298
v -1.059185 0.243373 0.164298
v -1.089821 0.227721 0.203271
v 1.701883 0.236801 0.164298
v 1.740856 0.227622 0.203271
v 1.754000 0.230587 0.164298
v -1.178110 0.462319 0.164298
v -1.216804 0.461501 0.203271
v 1.906034 0.094188 0.164298
v 1.867061 0.142380 0.203271
v -1.324847 0.619863 0.164298
v -1.364061 0.629856 0.164298
v -1.366631 0.622363 0.203272
v -1.465488 0.640485 0.164298
v -1.524957 0.639091 0.164298
v -1.491694 0.635469 0.203272
v -1.670476 0.612191 0.164298
v -1.636266 0.608744 0.203272
v -1.844365 0.526704 0.164298
v -1.806157 0.525223 0.203272
v -1.978014 0.336500 0.164298
v -1.943706 0.330310 0.164298
v -1.938436 0.336969 0.203271
v 1.867061 0.144322 0.203271
v 1.867061 0.156654 0.164298
v -1.512466 0.327737 0.164298
v -1.479688 0.341263 0.203271
v -1.554453 0.333953 0.164298
v 1.803959 0.206968 0.164298
v 1.803959 0.196426 0.203271
vn -0.0000 -0.0000 -1.0000
vn -0.9060 0.4232 -0.0000
vn -0.0000 -1.0000 -0.0000
vn 0.8787 -0.4773 -0.0000
vn 0.8484 -0.5293 -0.0000
vn 0.4274 -0.9041 -0.0000
vn -0.0000 -0.0000 1.0000
vn -1.0000 -0.0000 -0.0000
vn 0.0094 1.0000 -0.0000
vn 1.0000 -0.0000 -0.0000
vn 0.1042 -0.9946 -0.0000
vn 0.6234 -0.7819 -0.0000
vn -0.1818 -0.9833 -0.0000
vn 0.7318 -0.6816 -0.0000
vn -0.8182 -0.5749 -0.0000
vn -0.0000 1.0000 -0.0000
vn 0.8787 0.4773 -0.0000
vn -0.9060 -0.4232 -0.0000
vn 0.4274 0.9041 -0.0000
vn 0.0094 -1.0000 -0.0000
vn -0.4412 -0.8974 -0.0000
vn 0.8484 0.5293 -0.0000
vn 0.1042 0.9946 -0.0000
vn 0.6234 0.7819 -0.0000
vn -0.1818 0.9833 -0.0000
vn 0.7318 0.6816 -0.0000
vn -0.4412 0.8974 -0.0000
vn -0.8182 0.5749 -0.0000
vn 0.1356 -0.8779 -0.4592
vn 0.1176 -0.9864 -0.1147
vn 0.2420 -0.9497 -0.1985
vn -0.0233 -0.9934 -0.1122
vn -0.1744 0.9664 -0.1887
vn -0.1327 0.8965 -0.4227
vn 0.1356 -0.8779 0.4592
vn 0.1176 -0.9864 0.1147
vn 0.2420 -0.9497 0.1985
vn -0.0233 -0.9934 0.1122
vn -0.1744 0.9664 0.1887
vn -0.1327 0.8965 0.4227
vn 0.1356 0.8779 -0.4592
vn 0.1176 0.9864 -0.1147
vn 0.2420 0.9497 -0.1985
vn -0.0233 0.9934 -0.1122
vn -0.1744 -0.9664 -0.1887
vn -0.1327 -0.8965 -0.4227
vn 0.1356 0.8779 0.4592
vn 0.1176 0.9864 0.1147
vn 0.2420 0.9497 0.1985
vn -0.0233 0.9934 0.1122
vn -0.1744 -0.9664 0.1887
vn -0.1327 -0.8965 0.4227
vn -0.0000 -0.9739 -0.2270
vn 0.6589 -0.3579 -0.6617
vn 0.7071 -0.0000 -0.7071
vn 0.5880 -0.5477 -0.5953
vn 0.1022 -0.9756 -0.1943
vn -0.1765 -0.9548 -0.2394
vn 0.6099 -0.7650 -0.2069
vn -0.3998 -0.8132 -0.4229
vn -0.6705 0.3132 -0.6726
vn -0.6315 -0.4437 -0.6359
vn 0.0092 0.9859 -0.1672
vn 0.4180 -0.8842 -0.2083
vn -0.0000 -0.9739 0.2270
vn 0.6589 -0.3579 0.6617
vn 0.7071 -0.0000 0.7071
vn 0.5880 -0.5477 0.5953
vn 0.1022 -0.9756 0.1943
vn -0.1765 -0.9548 0.2394
vn 0.6099 -0.7650 0.2069
vn -0.3998 -0.8132 0.4229
vn -0.6705 0.3132 0.6726
vn -0.6315 -0.4437 0.6359
vn 0.0092 0.9859 0.1672
vn 0.4180 -0.8842 0.2083
vn -0.1776 0.9841 -0.0000
vn 0.2469 -0.9690 -0.0000
vn -0.1464 0.9892 -0.0000
vn -0.0234 -0.9997 -0.0000
vn 0.1184 -0.9930 -0.0000
vn 0.1527 -0.9883 -0.0000
vn -0.0000 0.9739 -0.2270
vn 0.6589 0.3579 -0.6617
vn 0.5880 0.5477 -0.5953
vn 0.1022 0.9756 -0.1943
vn -0.1765 0.9548 -0.2394
vn 0.6099 0.7650 -0.2069
vn -0.3998 0.8132 -0.4229
vn -0.6705 -0.3132 -0.6726
vn -0.6315 0.4437 -0.6359
vn 0.0092 -0.9859 -0.1672
vn 0.4180 0.8842 -0.2083
vn -0.0000 0.9739 0.2270
vn 0.6589 0.3579 0.6617
vn 0.5880 0.5477 0.5953
vn 0.1022 0.9756 0.1943
vn -0.1765 0.9548 0.2394
vn 0.6099 0.7650 0.2069
vn -0.3998 0.8132 0.4229
vn -0.6705 -0.3132 0.6726
vn -0.6315 0.4437 0.6359
vn 0.0092 -0.9859 0.1672
vn 0.4180 0.8842 0.2083
vn -0.1776 -0.9841 -0.0000
vn 0.2469 0.9690 -0.0000
vn -0.1464 -0.9892 -0.0000
vn -0.0234 0.9997 -0.0000
vn 0.1184 0.9930 -0.0000
vn 0.1527 0.9883 -0.0000
vn -0.0000 -0.9734 -0.2292
vn 0.6186 -0.7491 -0.2370
vn 0.8329 -0.5197 -0.1903
vn 0.4307 -0.8712 -0.2356
vn -0.0000 -0.9734 0.2292
vn 0.6186 -0.7491 0.2370
vn 0.8329 -0.5197 0.1903
vn 0.4307 -0.8712 0.2356
vn -0.0000 0.9734 -0.2292
vn 0.6186 0.7491 -0.2370
vn 0.8329 0.5197 -0.1903
vn 0.4307 0.8712 -0.2356
vn -0.0000 0.9734 0.2292
vn 0.6186 0.7491 0.2370
vn 0.8329 0.5197 0.1903
vn 0.4307 0.8712 0.2356
vt 1.000000 0.500000
vt 0.000000 0.500000
vt 1.000000 0.500000
vt 1.000000 0.500000
vt 1.000000 0.500000
vt 0.000000 0.500000
vt 1.000000 0.500000
vt 1.000000 0.500000
vt 0.013937 0.000000
vt 0.000000 0.000000
vt -0.012232 0.019171
vt 0.000000 0.000000
vt 0.000000 0.030947
vt 0.986063 0.000000
vt 1.000000 0.019381
vt 1.000000 0.000000
vt 0.000000 0.000000
vt 0.000000 0.000000
vt 1.000000 0.000000
vt 1.000000 0.045559
vt 0.000000 0.000000
vt 0.000000 0.000000
vt 0.000000 0.000000
vt 0.000000 0.000000
vt 0.000000 0.000000
vt 0.000000 0.000000
vt 1.000000 0.500000
vt 1.000000 0.500000
vt 0.000000 0.000000
vt 0.000000 0.000000
vt 0.000000 0.000000
vt 0.000000 0.000000
vt 0.000000 0.000000
vt 0.000000 0.000000
vt 0.000000 0.000000
vt 1.000000 0.039362
vt 1.000000 0.000000
vt 0.000000 0.009841
vt 0.000000 0.000000
vt 0.000000 -0.026144
vt 0.000000 0.000000
vt 0.000000 0.500000
vt 0.000000 0.500000
vt 1.000000 0.000000
vt 1.000000 0.025467
vt 0.013937 0.000000
vt -0.012232 0.019171
vt 0.000000 0.030947
vt 0.000000 0.000000
vt 0.000000 0.000000
vt 0.986063 0.000000
vt 1.000000 0.000000
vt 1.000000 0.019381
vt 0.000000 0.000000
vt 0.000000 0.000000
vt 1.000000 0.045559
vt 1.000000 0.000000
vt 0.000000 0.000000
vt 0.000000 0.000000
vt 0.000000 0.000000
vt 0.000000 0.000000
vt 0.000000 0.000000
vt 0.000000 0.000000
vt 1.000000 0.500000
vt 1.000000 0.500000
vt 0.000000 0.000000
vt 0.000000 0.000000
vt 0.000000 0.000000
vt 0.000000 0.000000
vt 0.000000 0.000000
vt 0.000000 0.000000
vt 0.000000 0.000000
vt 1.000000 0.000000
vt 1.000000 0.039362
vt 0.000000 0.009841
vt 0.000000 0.000000
vt 0.000000 -0.026144
vt 0.000000 0.000000
vt 0.000000 0.500000
vt 0.000000 0.500000
vt 1.000000 0.025467
vt 1.000000 0.000000
vt 0.013937 0.000000
vt -0.012232 0.019171
vt 0.000000 0.030947
vt 0.000000 0.000000
vt 0.000000 0.000000
vt 0.986063 0.000000
vt 1.000000 0.000000
vt 1.000000 0.019381
vt 0.000000 0.000000
vt 0.000000 0.000000
vt 1.000000 0.045559
vt 1.000000 0.000000
vt 0.000000 0.000000
vt 0.000000 0.000000
vt 0.000000 0.000000
vt 0.000000 0.000000
vt 0.000000 0.000000
vt 0.000000 0.000000
vt 0.000000 0.000000
vt 0.000000 0.000000
vt 0.000000 0.000000
vt 0.000000 0.000000
vt 0.000000 0.000000
vt 0.000000 0.000000
vt 0.000000 0.000000
vt 1.000000 0.000000
vt 1.000000 0.039362
vt 0.000000 0.009841
vt 0.000000 0.000000
vt 0.000000 -0.026144
vt 0.000000 0.000000
vt 1.000000 0.025467
vt 1.000000 0.000000
vt 0.013937 0.000000
vt 0.000000 0.000000
vt -0.012232 0.019171
vt 0.000000 0.030947
vt 0.000000 0.000000
vt 0.986063 0.000000
vt 1.000000 0.019381
vt 1.000000 0.000000
vt 0.000000 0.000000
vt 0.000000 0.000000
vt 1.000000 0.000000
vt 1.000000 0.045559
vt 0.000000 0.000000
vt 0.000000 0.000000
vt 0.000000 0.000000
vt 0.000000 0.000000
vt 0.000000 0.000000
vt 0.000000 0.000000
vt 0.000000 0.000000
vt 0.000000 0.000000
vt 0.000000 0.000000
vt 0.000000 0.000000
vt 0.000000 0.000000
vt 0.000000 0.000000
vt 0.000000 0.000000
vt 1.000000 0.039362
vt 1.000000 0.000000
vt 0.000000 0.009841
vt 0.000000 -0.026144
vt 0.000000 0.000000
vt 0.000000 0.000000
vt 1.000000 0.000000
vt 1.000000 0.025467
s 0
f 3/3/1 42/45/1 13/15/1
f 36/38/2 74/80/2 39/42/2
f 12/14/3 43/46/3 9/9/3
f 10/10/4 50/55/4 15/17/4
f 17/19/5 68/73/5 35/37/5
f 41/44/6 47/52/6 14/16/6
f 7/7/7 75/81/7 8/8/7
f 109/119/7 73/79/7 6/6/7
f 63/68/7 57/62/7 49/54/7
f 48/53/7 6/6/7 44/47/7
f 5/5/8 116/127/8 130/141/8
f 5/5/7 51/56/7 60/65/7
f 32/34/9 71/76/9 38/41/9
f 1/1/8 18/20/8 34/36/8
f 26/28/10 52/57/10 17/19/10
f 20/22/11 56/61/11 22/24/11
f 35/37/12 76/82/12 41/44/12
f 23/25/13 62/67/13 27/29/13
f 15/17/14 53/58/14 19/21/14
f 24/26/1 30/32/1 37/39/1
f 1/1/7 85/93/7 25/27/7
f 4/4/1 34/36/1 42/45/1
f 29/31/15 65/70/15 31/33/15
f 78/85/1 40/43/1 104/112/1
f 2/2/1 13/15/1 11/11/1
f 107/116/16 80/88/16 77/83/16
f 6/6/7 111/122/7 109/118/7
f 113/124/17 79/87/17 84/92/17
f 74/80/18 102/110/18 39/42/18
f 115/126/10 26/28/10 86/94/10
f 112/123/19 106/115/19 81/89/19
f 7/7/7 136/148/7 111/122/7
f 122/133/7 126/137/7 133/145/7
f 82/90/1 2/2/1 78/84/1
f 8/8/7 69/74/7 5/5/7
f 8/8/7 130/141/7 136/148/7
f 134/146/20 99/107/20 103/111/20
f 27/29/21 64/69/21 29/31/21
f 131/142/22 86/94/22 100/108/22
f 120/131/23 89/97/23 90/98/23
f 135/147/24 100/108/24 106/115/24
f 123/134/25 92/100/25 94/102/25
f 117/128/26 84/92/26 87/95/26
f 3/3/1 105/114/1 4/4/1
f 125/136/27 94/102/27 96/104/27
f 4/4/1 101/109/1 1/1/1
f 127/138/28 96/104/28 97/105/28
f 44/48/7 73/79/7 72/77/7
f 95/103/1 91/99/1 83/91/1
f 9/9/29 10/10/29 11/11/29
f 12/14/30 13/15/30 14/16/30
f 19/21/31 20/22/31 21/23/31
f 22/24/32 23/25/32 24/26/32
f 31/33/33 32/34/33 33/35/33
f 36/38/34 37/39/34 38/41/34
f 43/46/35 44/49/35 45/50/35
f 46/51/36 47/52/36 48/53/36
f 53/58/37 54/59/37 55/60/37
f 56/61/38 57/62/38 58/63/38
f 65/70/39 66/71/39 67/72/39
f 70/75/40 71/76/40 72/77/40
f 77/83/41 78/86/41 79/87/41
f 80/88/42 81/89/42 82/90/42
f 87/95/43 88/96/43 89/97/43
f 90/98/44 91/99/44 92/100/44
f 97/105/45 98/106/45 99/107/45
f 102/110/46 103/111/46 104/112/46
f 107/116/47 108/117/47 109/118/47
f 110/121/48 111/122/48 112/123/48
f 117/128/49 118/129/49 119/130/49
f 120/131/50 121/132/50 122/133/50
f 127/138/51 128/139/51 129/140/51
f 132/143/52 133/145/52 134/146/52
f 13/15/53 9/9/53 11/11/53
f 16/18/54 10/10/54 15/17/54
f 25/27/55 17/19/55 18/20/55
f 16/18/56 19/21/56 21/23/56
f 24/26/57 20/22/57 22/24/57
f 28/30/58 23/25/58 27/29/58
f 42/45/59 35/37/59 41/44/59
f 28/30/60 29/31/60 30/32/60
f 40/43/61 36/38/61 39/42/61
f 33/35/62 29/31/62 31/33/62
f 38/41/63 33/35/63 32/34/63
f 18/20/10 35/37/10 34/36/10
f 13/15/64 41/44/64 14/16/64
f 43/46/65 48/53/65 44/47/65
f 45/50/66 49/54/66 50/55/66
f 52/57/67 60/65/67 51/56/67
f 53/58/68 49/54/68 54/59/68
f 55/60/69 57/62/69 56/61/69
f 58/63/70 61/66/70 62/67/70
f 68/73/71 75/81/71 76/82/71
f 64/69/72 61/66/72 63/68/72
f 70/75/73 73/79/73 74/80/73
f 64/69/74 66/71/74 65/70/74
f 66/71/75 71/76/75 67/72/75
f 68/73/10 51/56/10 69/74/10
f 76/82/76 48/53/76 47/52/76
f 32/34/77 65/70/77 67/72/77
f 20/22/78 53/58/78 55/60/78
f 36/38/79 71/76/79 70/75/79
f 23/25/80 56/61/80 58/63/80
f 12/14/81 47/52/81 46/51/81
f 10/10/82 43/46/82 45/50/82
f 77/83/83 82/90/83 78/84/83
f 79/87/84 83/91/84 84/92/84
f 86/94/55 25/27/55 85/93/55
f 87/95/85 83/91/85 88/96/85
f 89/97/86 91/99/86 90/98/86
f 92/100/87 93/101/87 94/102/87
f 100/108/88 105/114/88 106/115/88
f 96/104/89 93/101/89 95/103/89
f 102/110/90 40/43/90 39/42/90
f 96/104/91 98/106/91 97/105/91
f 98/106/92 103/111/92 99/107/92
f 100/108/10 85/93/10 101/109/10
f 106/115/93 82/90/93 81/89/93
f 111/122/94 107/116/94 109/118/94
f 114/125/95 108/117/95 113/124/95
f 60/65/67 115/126/67 116/127/67
f 114/125/96 117/128/96 119/130/96
f 122/133/97 118/129/97 120/131/97
f 124/135/98 121/132/98 123/134/98
f 136/148/99 131/142/99 135/147/99
f 124/135/100 125/136/100 126/137/100
f 73/79/101 132/143/101 74/80/101
f 129/140/102 125/136/102 127/138/102
f 134/146/103 129/140/103 128/139/103
f 116/127/10 131/142/10 130/141/10
f 111/122/104 135/147/104 112/123/104
f 97/105/105 128/139/105 127/138/105
f 87/95/106 118/129/106 117/128/106
f 103/111/107 132/143/107 134/146/107
f 90/98/108 121/132/108 120/131/108
f 81/89/109 110/121/109 112/123/109
f 77/83/110 108/117/110 107/116/110
f 11/13/1 40/43/1 2/2/1
f 3/3/1 4/4/1 42/45/1
f 36/38/2 70/75/2 74/80/2
f 12/14/3 46/51/3 43/46/3
f 10/10/4 45/50/4 50/55/4
f 17/19/5 52/57/5 68/73/5
f 41/44/6 76/82/6 47/52/6
f 7/7/7 48/53/7 75/81/7
f 109/119/7 133/144/7 73/79/7
f 49/54/7 44/49/7 72/78/7
f 72/78/7 66/71/7 63/68/7
f 63/68/7 61/66/7 57/62/7
f 57/62/7 54/59/7 49/54/7
f 49/54/7 72/78/7 63/68/7
f 48/53/7 7/7/7 6/6/7
f 5/5/7 60/65/7 116/127/7
f 5/5/8 69/74/8 51/56/8
f 32/34/9 67/72/9 71/76/9
f 1/1/7 25/27/7 18/20/7
f 26/28/10 59/64/10 52/57/10
f 20/22/11 55/60/11 56/61/11
f 35/37/12 68/73/12 76/82/12
f 23/25/13 58/63/13 62/67/13
f 15/17/14 50/55/14 53/58/14
f 37/39/1 11/12/1 16/18/1
f 16/18/1 21/23/1 24/26/1
f 24/26/1 28/30/1 30/32/1
f 30/32/1 33/35/1 37/39/1
f 37/39/1 16/18/1 24/26/1
f 1/1/8 101/109/8 85/93/8
f 4/4/1 1/1/1 34/36/1
f 29/31/15 64/69/15 65/70/15
f 78/85/1 2/2/1 40/43/1
f 2/2/1 3/3/1 13/15/1
f 107/116/16 110/121/16 80/88/16
f 6/6/7 7/7/7 111/122/7
f 113/124/17 108/117/17 79/87/17
f 74/80/18 132/143/18 102/110/18
f 115/126/10 59/64/10 26/28/10
f 112/123/19 135/147/19 106/115/19
f 7/7/7 8/8/7 136/148/7
f 133/145/7 109/120/7 114/125/7
f 114/125/7 119/130/7 122/133/7
f 122/133/7 124/135/7 126/137/7
f 126/137/7 129/140/7 133/145/7
f 133/145/7 114/125/7 122/133/7
f 82/90/1 3/3/1 2/2/1
f 8/8/7 75/81/7 69/74/7
f 8/8/7 5/5/7 130/141/7
f 134/146/20 128/139/20 99/107/20
f 27/29/21 62/67/21 64/69/21
f 131/142/22 115/126/22 86/94/22
f 120/131/23 118/129/23 89/97/23
f 135/147/24 131/142/24 100/108/24
f 123/134/25 121/132/25 92/100/25
f 117/128/26 113/124/26 84/92/26
f 3/3/1 82/90/1 105/114/1
f 125/136/27 123/134/27 94/102/27
f 4/4/1 105/114/1 101/109/1
f 127/138/28 125/136/28 96/104/28
f 44/48/7 6/6/7 73/79/7
f 83/91/1 78/86/1 104/113/1
f 104/113/1 98/106/1 95/103/1
f 95/103/1 93/101/1 91/99/1
f 91/99/1 88/96/1 83/91/1
f 83/91/1 104/113/1 95/103/1
f 13/15/111 12/14/111 9/9/111
f 16/18/54 11/12/54 10/10/54
f 25/27/55 26/28/55 17/19/55
f 16/18/56 15/17/56 19/21/56
f 24/26/57 21/23/57 20/22/57
f 28/30/58 24/26/58 23/25/58
f 42/45/112 34/36/112 35/37/112
f 28/30/60 27/29/60 29/31/60
f 40/43/61 37/40/61 36/38/61
f 33/35/62 30/32/62 29/31/62
f 38/41/63 37/39/63 33/35/63
f 18/20/113 17/19/113 35/37/113
f 13/15/114 42/45/114 41/44/114
f 43/46/115 46/51/115 48/53/115
f 45/50/66 44/49/66 49/54/66
f 52/57/67 59/64/67 60/65/67
f 53/58/68 50/55/68 49/54/68
f 55/60/69 54/59/69 57/62/69
f 58/63/70 57/62/70 61/66/70
f 68/73/116 69/74/116 75/81/116
f 64/69/72 62/67/72 61/66/72
f 70/75/73 72/77/73 73/79/73
f 64/69/74 63/68/74 66/71/74
f 66/71/75 72/78/75 71/76/75
f 68/73/117 52/57/117 51/56/117
f 76/82/118 75/81/118 48/53/118
f 32/34/77 31/33/77 65/70/77
f 20/22/78 19/21/78 53/58/78
f 36/38/79 38/41/79 71/76/79
f 23/25/80 22/24/80 56/61/80
f 12/14/81 14/16/81 47/52/81
f 10/10/82 9/9/82 43/46/82
f 77/83/119 80/88/119 82/90/119
f 79/87/84 78/86/84 83/91/84
f 86/94/55 26/28/55 25/27/55
f 87/95/85 84/92/85 83/91/85
f 89/97/86 88/96/86 91/99/86
f 92/100/87 91/99/87 93/101/87
f 100/108/120 101/109/120 105/114/120
f 96/104/89 94/102/89 93/101/89
f 102/110/90 104/112/90 40/43/90
f 96/104/91 95/103/91 98/106/91
f 98/106/92 104/113/92 103/111/92
f 100/108/121 86/94/121 85/93/121
f 106/115/122 105/114/122 82/90/122
f 111/122/123 110/121/123 107/116/123
f 114/125/95 109/120/95 108/117/95
f 60/65/67 59/64/67 115/126/67
f 114/125/96 113/124/96 117/128/96
f 122/133/97 119/130/97 118/129/97
f 124/135/98 122/133/98 121/132/98
f 136/148/124 130/141/124 131/142/124
f 124/135/100 123/134/100 125/136/100
f 73/79/101 133/144/101 132/143/101
f 129/140/102 126/137/102 125/136/102
f 134/146/103 133/145/103 129/140/103
f 116/127/125 115/126/125 131/142/125
f 111/122/126 136/148/126 135/147/126
f 97/105/105 99/107/105 128/139/105
f 87/95/106 89/97/106 118/129/106
f 103/111/107 102/110/107 132/143/107
f 90/98/108 92/100/108 121/132/108
f 81/89/109 80/88/109 110/121/109
f 77/83/110 79/87/110 108/117/110
f 11/13/1 37/40/1 40/43/1
