# Blender 3.3.1
# www.blender.org
mtllib tomahawk.mtl
o tomahawk
v 0.887349 -0.000000 0.197601
v -0.849124 -0.000000 0.197601
v 0.887349 -0.139725 0.139725
v -0.849124 -0.139725 0.139725
v 0.887349 -0.197601 -0.000000
v -0.849124 -0.197601 -0.000000
v 0.887349 -0.139725 -0.139725
v -0.849124 -0.139725 -0.139725
v 0.887349 0.000000 -0.197601
v -0.849124 0.000000 -0.197601
v 0.887349 0.139725 -0.139725
v -0.849124 0.139725 -0.139725
v 0.887349 0.197601 0.000000
v -0.849124 0.197601 0.000000
v 0.887349 0.139725 0.139725
v -0.849124 0.139725 0.139725
v 0.941888 -0.000000 0.324310
v 0.941888 -0.229322 0.229322
v 0.941888 -0.324310 -0.000000
v 0.941888 -0.229322 -0.229322
v 0.941888 0.000000 -0.324311
v 0.941888 0.229322 -0.229322
v 0.941888 0.324310 0.000000
v 0.941888 0.229322 0.229322
v -1.090364 -0.000000 0.197601
v -1.090364 -0.139725 0.139725
v -1.090364 -0.197601 -0.000000
v -1.090364 -0.139725 -0.139725
v -1.090364 0.000000 -0.197601
v -1.090364 0.139725 -0.139725
v -1.090364 0.197601 0.000000
v -1.090364 0.139725 0.139725
v -1.245054 -0.268798 0.648936
v -1.245055 -0.648936 -0.268797
v -1.245055 0.268798 -0.648935
v -1.245055 0.648935 0.268798
v 1.020902 -0.000000 0.288774
v 1.020902 -0.204194 0.204194
v 1.020902 -0.288774 -0.000000
v 1.020902 -0.204194 -0.204195
v 1.020902 0.000000 -0.288775
v 1.020902 0.204194 -0.204195
v 1.020902 0.288774 0.000000
v 1.020902 0.204194 0.204194
v 1.305115 0.000000 0.000000
vn -0.0000 0.3827 -0.9239
vn -0.0000 0.9239 -0.3827
vn -0.0000 0.9239 0.3827
vn -0.0000 0.3827 0.9239
vn -0.0000 -0.3827 0.9239
vn -0.0000 -0.9239 0.3827
vn -0.0000 -0.9239 -0.3827
vn -0.0000 -0.3827 -0.9239
vn 0.9065 0.3902 0.1616
vn 0.9065 -0.3902 0.1616
vn 0.9065 0.1616 0.3902
vn 0.9065 -0.3902 -0.1616
vn 0.9065 0.3902 -0.1616
vn 0.9065 -0.1616 0.3902
vn 0.9065 -0.1616 -0.3902
vn 0.9065 0.1616 -0.3902
vn 1.0000 -0.0000 -0.0000
vn -0.7955 -0.5598 -0.2319
vn 0.9585 0.2635 0.1091
vn -0.0000 0.9693 0.2457
vn -0.0000 0.2457 -0.9693
vn -0.0000 0.5117 -0.8592
vn -0.7955 -0.2319 0.5598
vn 0.9585 -0.1091 0.2635
vn -0.0000 -0.8592 -0.5117
vn -0.0000 -0.9693 -0.2457
vn -0.7955 0.5598 0.2319
vn -0.0000 -0.5117 0.8592
vn -0.7955 0.2319 -0.5598
vn 0.9585 -0.2635 -0.1091
vn -0.0000 -0.2457 0.9693
vn -0.0000 0.8592 0.5117
vn 0.9585 0.1091 -0.2635
vn -0.3837 -0.3534 -0.8532
vn -0.3837 -0.8532 0.3534
vn -0.3837 0.3534 0.8532
vn -0.3837 0.8532 -0.3534
vn -0.3837 -0.8532 -0.3534
vn -0.3837 -0.3534 0.8532
vn -0.3837 0.8532 0.3534
vn -0.3837 0.3534 -0.8532
vn -0.6844 -0.6736 0.2790
vn -0.6844 0.2790 0.6736
vn -0.6844 0.6736 -0.2790
vn -0.6844 -0.6736 -0.2790
vn -0.6844 -0.2790 0.6736
vn -0.6844 0.6736 0.2790
vn -0.6844 0.2790 -0.6736
vn -0.6844 -0.2790 -0.6736
vt 0.906966 0.326847
vt 0.268034 0.693016
vt 0.140332 0.312082
vt 0.316388 0.811680
vt 0.194468 0.864916
vt 0.735841 0.326847
vt 0.906966 0.231031
vt 0.216209 0.693016
vt 0.262333 0.758422
vt 0.233792 0.864916
vt 0.735841 0.231031
vt 0.140332 0.216267
vt 0.792388 0.346591
vt 0.906966 0.163280
vt 0.179564 0.729661
vt 0.140332 0.148515
vt 0.201255 0.732865
vt 0.192347 0.812327
vt 0.735841 0.163280
vt 0.621264 0.346591
vt 0.792388 0.278839
vt 0.179564 0.781486
vt 0.239843 0.291143
vt 0.153023 0.812327
vt 0.199964 0.671780
vt 0.621264 0.278839
vt 0.792388 0.183024
vt 0.216209 0.818131
vt 0.316682 0.812327
vt 0.328250 0.717027
vt 0.621264 0.183024
vt 0.239843 0.195328
vt 0.707252 0.144936
vt 0.268034 0.818131
vt 0.792388 0.115272
vt 0.277358 0.812327
vt 0.125754 0.773616
vt 0.621264 0.115272
vt 0.875325 0.112765
vt 0.274894 0.157059
vt 0.719989 0.211479
vt 0.304679 0.781486
vt 0.287631 0.223603
vt 0.235913 0.864916
vt 0.238649 0.813530
vt 0.888062 0.179308
vt 0.738002 0.305586
vt 0.906966 0.394599
vt 0.304679 0.729661
vt 0.735841 0.394599
vt 0.275237 0.864916
vt 0.347916 0.789043
vt 0.906075 0.273416
vt 0.140332 0.379834
vt 0.284650 0.652901
vt 0.199594 0.652901
vt 0.139449 0.713046
vt 0.139449 0.798102
vt 0.199594 0.858246
vt 0.284650 0.858246
vt 0.344794 0.798102
vt 0.344794 0.713046
vt 0.277489 0.716573
vt 0.303638 0.810011
vt 0.665798 0.814601
vt 0.116559 0.312082
vt 0.249681 0.760717
vt 0.293305 0.732388
vt 0.733550 0.882352
vt 0.116559 0.216267
vt 0.197138 0.732865
vt 0.162908 0.700998
vt 0.829365 0.882352
vt 0.116559 0.148515
vt 0.174640 0.689266
vt 0.187106 0.671780
vt 0.897117 0.814601
vt 0.216069 0.291143
vt 0.320159 0.717027
vt 0.174640 0.672675
vt 0.897117 0.718785
vt 0.216069 0.195328
vt 0.138383 0.771199
vt 0.162908 0.660943
vt 0.298244 0.152590
vt 0.829365 0.651033
vt 0.293305 0.678391
vt 0.225997 0.811235
vt 0.310981 0.219133
vt 0.733550 0.651033
vt 0.277489 0.694206
vt 0.338159 0.789043
vt 0.665798 0.718785
vt 0.116559 0.379834
vt 0.262333 0.809234
vt 0.272581 0.753966
vt 0.292521 0.738658
vt 0.193408 0.812327
vt 0.190645 0.710676
vt 0.193408 0.864916
vt 0.190645 0.704639
vt 0.190895 0.719800
vt 0.317743 0.864916
vt 0.121631 0.703839
vt 0.307398 0.686812
vt 0.178281 0.644937
vt 0.234853 0.812327
vt 0.255912 0.673482
vt 0.341035 0.841633
vt 0.214966 0.758422
vt 0.284650 0.652901
vt 0.199594 0.652901
vt 0.139449 0.713046
vt 0.139449 0.798102
vt 0.199594 0.858246
vt 0.284650 0.858246
vt 0.344794 0.798102
vt 0.344794 0.713046
vt 0.344794 0.798102
vt 0.199594 0.858246
vt 0.139449 0.713046
vt 0.344794 0.713046
vt 0.284650 0.858246
vt 0.139449 0.798102
vt 0.199594 0.652901
vt 0.284650 0.652901
s 0
f 1/1/1 4/11/1 2/6/1
f 5/14/2 4/11/2 3/7/2
f 7/21/3 6/20/3 5/13/3
f 9/27/4 8/26/4 7/21/4
f 11/35/5 10/31/5 9/27/5
f 13/41/6 12/39/6 11/33/6
f 31/89/6 12/40/6 14/43/6
f 15/47/7 14/46/7 13/41/7
f 15/48/8 2/6/8 16/50/8
f 19/57/9 7/22/9 5/15/9
f 22/60/10 13/42/10 11/34/10
f 20/58/11 9/28/11 7/22/11
f 23/61/12 15/49/12 13/42/12
f 18/56/13 5/15/13 3/8/13
f 9/28/14 22/60/14 11/34/14
f 24/62/15 1/2/15 15/49/15
f 17/55/16 3/8/16 1/2/16
f 29/81/17 31/90/17 25/65/17
f 10/32/4 28/78/4 8/23/4
f 16/51/18 36/107/18 14/44/18
f 27/74/2 4/12/2 6/16/2
f 31/87/19 36/108/19 32/91/19
f 25/66/8 16/54/8 2/3/8
f 26/67/20 33/95/20 4/9/20
f 32/92/21 36/109/21 16/52/21
f 6/17/22 34/99/22 27/71/22
f 12/36/23 35/103/23 10/29/23
f 25/63/24 33/96/24 26/68/24
f 2/4/25 33/97/25 25/64/25
f 30/83/26 35/104/26 12/37/26
f 8/24/27 34/100/27 6/18/27
f 14/45/28 36/110/28 31/88/28
f 4/10/29 33/98/29 2/5/29
f 27/72/30 34/101/30 28/75/30
f 28/76/31 34/102/31 8/25/31
f 10/30/32 35/105/32 29/79/32
f 29/80/33 35/106/33 30/84/33
f 24/62/34 37/111/34 17/55/34
f 22/60/35 43/117/35 23/61/35
f 20/58/36 41/115/36 21/59/36
f 18/56/37 39/113/37 19/57/37
f 23/61/38 44/118/38 24/62/38
f 22/60/39 41/115/39 42/116/39
f 19/57/40 40/114/40 20/58/40
f 17/55/41 38/112/41 18/56/41
f 43/117/42 42/116/42 45/119/42
f 41/115/43 40/114/43 45/120/43
f 39/113/44 38/112/44 45/121/44
f 44/118/45 43/117/45 45/122/45
f 42/116/46 41/115/46 45/123/46
f 40/114/47 39/113/47 45/124/47
f 38/112/48 37/111/48 45/125/48
f 37/111/49 44/118/49 45/126/49
f 1/1/1 3/7/1 4/11/1
f 5/14/2 6/19/2 4/11/2
f 7/21/3 8/26/3 6/20/3
f 9/27/4 10/31/4 8/26/4
f 11/35/5 12/38/5 10/31/5
f 13/41/6 14/46/6 12/39/6
f 31/89/6 30/85/6 12/40/6
f 15/47/7 16/53/7 14/46/7
f 15/48/8 1/1/8 2/6/8
f 19/57/9 20/58/9 7/22/9
f 22/60/10 23/61/10 13/42/10
f 20/58/11 21/59/11 9/28/11
f 23/61/12 24/62/12 15/49/12
f 18/56/13 19/57/13 5/15/13
f 9/28/14 21/59/14 22/60/14
f 24/62/15 17/55/15 1/2/15
f 17/55/16 18/56/16 3/8/16
f 25/65/17 26/69/17 27/73/17
f 27/73/17 28/77/17 29/81/17
f 29/81/17 30/86/17 31/90/17
f 31/90/17 32/93/17 25/65/17
f 25/65/17 27/73/17 29/81/17
f 10/32/4 29/82/4 28/78/4
f 27/74/2 26/70/2 4/12/2
f 25/66/8 32/94/8 16/54/8
f 24/62/34 44/118/34 37/111/34
f 22/60/35 42/116/35 43/117/35
f 20/58/36 40/114/36 41/115/36
f 18/56/37 38/112/37 39/113/37
f 23/61/38 43/117/38 44/118/38
f 22/60/39 21/59/39 41/115/39
f 19/57/40 39/113/40 40/114/40
f 17/55/41 37/111/41 38/112/41
